<svg xmlns="http://www.w3.org/2000/svg" width="512" height="512" viewBox="0 0 24.684 24.684" xml:space="preserve"><g fill="#fff"><path d="M2.166 3.406H.418a.42.42 0 0 0-.418.42v20.438c0 .232.188.42.418.42h20.439a.42.42 0 0 0 .422-.42v-1.75a.42.42 0 0 0-.422-.418H2.586V3.826a.42.42 0 0 0-.42-.42" data-original="#030104"/><path d="M3.406.416v20.441c0 .234.188.418.42.418h20.441a.415.415 0 0 0 .416-.418V.416A.413.413 0 0 0 24.268 0H3.826a.415.415 0 0 0-.42.416m15.412 6.289-.615 6.945c-.045.506-.377.627-.736.266l-1.662-1.662c-.18-.18-.42-.418-.656-.658l-3.547 3.549a.924.924 0 0 1-1.307 0l-.76-.76a.93.93 0 0 1 0-1.307l3.549-3.545c-.238-.238-.475-.477-.658-.654l-1.66-1.664c-.359-.363-.24-.691.266-.736l6.947-.613c.503-.048.882.329.839.839" data-original="#030104"/></g></svg>