<svg width="120" height="50" viewBox="0 0 120 50" fill="none" xmlns="http://www.w3.org/2000/svg">
<g clip-path="url(#clip0_1_49)">
<path d="M39.2077 5.22682H79.8281V44.7251H39.2077V5.22682Z" fill="white"/>
<path d="M39 4.92327H80V44.9233H39V4.92327Z" fill="#008061"/>
<path d="M64.279 42.2914V43.8929H54.4453V42.2885H47.0041C46.277 42.2885 45.6847 41.5254 45.6847 40.5846L42.5711 8.96571C42.5711 8.0243 43.2982 7.26065 44.1954 7.26065H74.2651C75.1564 7.26065 75.8835 8.0243 75.8835 8.96571L72.805 40.5846C72.805 41.5254 72.2127 42.2885 71.4857 42.2885L64.279 42.2914Z" fill="white"/>
<path d="M48.0479 11.8901H68.1785C66.1965 12.6361 60.1626 16.7381 58.6557 19.496H48.0656L48.0479 11.8901Z" fill="#F5821F"/>
<path d="M64.0915 33.6836C63.8042 36.4379 63.7924 39.7921 63.7924 43.3153H55.067C55.067 39.7921 55.2136 36.4379 55.5009 33.6836H64.0915Z" fill="#ED1B2D"/>
<path d="M50.5929 29.7034V30.7709H49.1973V31.8389H50.5929V33.0625H47.4029V27.3684H50.5929V28.6367H49.1973V29.7034H50.5929Z" fill="#008061"/>
<path d="M58.0105 29.7034V30.7709H56.6209V31.8389H58.0105V33.0625H54.8266V27.3684H58.0105V28.6367H56.6209V29.7034H58.0105Z" fill="#008061"/>
<path d="M66.1848 29.7034V30.7709H64.7892V31.8389H66.1848V33.0625H62.9948V27.3684H66.1848V28.6367H64.7892V29.7034H66.1848Z" fill="#008061"/>
<path d="M52.9853 27.3684V31.8389H54.3808V33.0625H51.191V27.3684H52.9853Z" fill="#008061"/>
<path d="M60.5849 31.2167L59.9046 27.3684H58.3391L59.2302 33.0625H61.5347L62.6137 27.3684H61.2826L60.5849 31.2167Z" fill="#008061"/>
<path d="M66.9412 27.3684H68.6653V33.0619H66.9412V27.3684Z" fill="#008061"/>
<path d="M68.6652 29.0588C68.759 28.4353 69.6386 28.6025 69.6386 28.9587V33.0624H71.3684V28.2363C71.3684 27.213 69.9318 26.8014 68.6769 27.7023L68.6652 29.0588Z" fill="#008061"/>
<path d="M64.9007 26.5677C65.0766 24.3886 68.0495 20.8301 70.9287 19.8957V11.4891C63.0067 15.0477 57.8582 20.4297 56.7441 26.5465L64.9007 26.5677Z" fill="#ED1B2D"/>
</g>
<defs>
<clipPath id="clip0_1_49">
<rect width="41" height="40" fill="white" transform="translate(39 5)"/>
</clipPath>
</defs>
</svg>
