<svg width="120" height="50" viewBox="0 0 120 50" fill="none" xmlns="http://www.w3.org/2000/svg">
<path d="M84.5614 6H35.4386C33.5395 6 32 7.53951 32 9.4386V40.8772C32 42.7763 33.5395 44.3158 35.4386 44.3158H84.5614C86.4605 44.3158 88 42.7763 88 40.8772V9.4386C88 7.53951 86.4605 6 84.5614 6Z" fill="#006FCF" stroke="#F3F3F3"/>
<path fill-rule="evenodd" clip-rule="evenodd" d="M43.1638 33.8956V25.8055H52.324L53.3067 27.0036L54.322 25.8055H87.5709V33.3376C87.5709 33.3376 86.7014 33.8875 85.6957 33.8956H67.2851L66.1771 32.6203V33.8956H62.5461V31.7186C62.5461 31.7186 62.0501 32.0225 60.9778 32.0225H59.7419V33.8956H54.2443L53.2629 32.6718L52.2665 33.8956H43.1638ZM32.4912 19.7081L34.5522 15.2048H38.1164L39.286 17.7274V15.2048H43.7166L44.4129 17.028L45.0879 15.2048H64.9768V16.1214C64.9768 16.1214 66.0224 15.2048 67.7407 15.2048L74.1939 15.2259L75.3433 17.7155V15.2048H79.0511L80.0716 16.6348V15.2048H83.8134V23.2949H80.0716L79.0936 21.8602V23.2949H73.6461L73.0982 22.0195H71.6338L71.0949 23.2949H67.4005C65.9219 23.2949 64.9768 22.3969 64.9768 22.3969V23.2949H59.4067L58.3011 22.0195V23.2949H37.5884L37.0409 22.0195H35.5811L35.0375 23.2949H32.4912V19.7081ZM32.5019 22.2596L35.2816 16.2021H37.3891L40.1662 22.2596H38.3165L37.8063 21.0467H34.8245L34.3116 22.2596H32.5019ZM37.219 19.7316L36.3101 17.6118L35.3986 19.7316H37.219ZM40.3575 22.2587V16.201L42.9293 16.2101L44.4251 20.1155L45.8852 16.201H48.4364V22.2587H46.8206V17.7952L45.1078 22.2587H43.6908L41.9733 17.7952V22.2587H40.3575ZM49.542 22.2587V16.201H54.8145V17.556H51.1747V18.5922H54.7294V19.8675H51.1747V20.9436H54.8145V22.2587H49.542ZM55.7499 22.2596V16.2021H59.3456C60.5369 16.2021 61.6044 16.8926 61.6044 18.1673C61.6044 19.2571 60.7044 19.9589 59.8319 20.0279L61.9579 22.2596H59.9834L58.046 20.1077H57.3656V22.2596H55.7499ZM59.2127 17.5571H57.3656V18.8324H59.2366C59.5604 18.8324 59.978 18.5972 59.978 18.1947C59.978 17.8819 59.6557 17.5571 59.2127 17.5571ZM63.9138 22.2587H62.2641V16.201H63.9138V22.2587ZM67.8258 22.2587H67.4696C65.7466 22.2587 64.7005 20.9864 64.7005 19.2548C64.7005 17.4804 65.7349 16.201 67.9107 16.201H69.6966V17.6358H67.8455C66.9622 17.6358 66.3375 18.2819 66.3375 19.2697C66.3375 20.4429 67.0518 20.9356 68.0808 20.9356H68.506L67.8258 22.2587ZM68.5618 22.2596L71.3416 16.2021H73.449L76.2261 22.2596H74.3765L73.8663 21.0467H70.8845L70.3716 22.2596H68.5618ZM73.279 19.7316L72.3701 17.6118L71.4586 19.7316H73.279ZM76.4149 22.2587V16.201H78.4691L81.0921 20.007V16.201H82.7079V22.2587H80.72L78.0306 18.3531V22.2587H76.4149ZM44.2694 32.8595V26.8018H49.542V28.1568H45.9022V29.193H49.4569V30.4683H45.9022V31.5444H49.542V32.8595H44.2694ZM70.1049 32.8595V26.8018H75.3773V28.1568H71.7376V29.193H75.2753V30.4683H71.7376V31.5444H75.3773V32.8595H70.1049ZM49.7466 32.8595L52.3138 29.868L49.6854 26.8018H51.7211L53.2864 28.6973L54.8569 26.8018H56.8129L54.2191 29.8307L56.7911 32.8595H54.7557L53.2359 30.9939L51.753 32.8595H49.7466ZM56.983 32.8604V26.8029H60.552C62.0165 26.8029 62.8721 27.6875 62.8721 28.8403C62.8721 30.232 61.7813 30.9475 60.3421 30.9475H58.6413V32.8604H56.983ZM60.4325 28.1728H58.6413V29.5677H60.4272C60.899 29.5677 61.2297 29.2745 61.2297 28.8702C61.2297 28.4399 60.8974 28.1728 60.4325 28.1728ZM63.5737 32.8595V26.8018H67.1693C68.3607 26.8018 69.4282 27.4923 69.4282 28.767C69.4282 29.8568 68.5282 30.5587 67.6556 30.6277L69.7816 32.8595H67.8071L65.8698 30.7074H65.1894V32.8595H63.5737ZM67.0364 28.1568H65.1894V29.4321H67.0603C67.3842 29.4321 67.8018 29.197 67.8018 28.7945C67.8018 28.4816 67.4795 28.1568 67.0364 28.1568ZM76.1257 32.8595V31.5444H79.3594C79.8378 31.5444 80.045 31.302 80.045 31.0362C80.045 30.7816 79.8385 30.5241 79.3594 30.5241H77.8981C76.628 30.5241 75.9205 29.7987 75.9205 28.7098C75.9205 27.7385 76.5683 26.8018 78.4558 26.8018H81.6023L80.922 28.1648H78.2007C77.6805 28.1648 77.5203 28.4206 77.5203 28.665C77.5203 28.9161 77.7183 29.193 78.1157 29.193H79.6464C81.0623 29.193 81.6767 29.9458 81.6767 30.9316C81.6767 31.9914 80.9921 32.8595 79.5693 32.8595H76.1257ZM81.8192 32.8595V31.5444H85.0528C85.5314 31.5444 85.7385 31.302 85.7385 31.0362C85.7385 30.7816 85.532 30.5241 85.0528 30.5241H83.5916C82.3214 30.5241 81.614 29.7987 81.614 28.7098C81.614 27.7385 82.2619 26.8018 84.1494 26.8018H87.2959L86.6155 28.1648H83.8942C83.374 28.1648 83.2139 28.4206 83.2139 28.665C83.2139 28.9161 83.4117 29.193 83.8091 29.193H85.3399C86.7558 29.193 87.3702 29.9458 87.3702 30.9316C87.3702 31.9914 86.6856 32.8595 85.2628 32.8595H81.8192Z" fill="white"/>
</svg>
