<svg width="120" height="50" viewBox="0 0 120 50" fill="none" xmlns="http://www.w3.org/2000/svg">
<g clip-path="url(#clip0_1_74)">
<path d="M17.4138 14.0004C17.3662 13.9996 17.3179 14 17.2689 14.0017C16.3186 14.0338 15.4441 14.3127 14.5999 14.6984C13.3964 15.2484 12.2806 15.9244 11.4204 16.9244C10.6544 17.815 10.6377 18.628 11.3449 19.5521C11.7745 20.1134 12.2217 20.6624 12.6592 21.2147C12.6058 21.2792 12.5372 21.2749 12.4768 21.2904C11.615 21.5112 10.7531 21.731 9.91045 22.0154C8.8395 22.377 8.19835 23.0675 8.06246 24.1725C7.95768 25.0242 7.98624 25.8711 8.13681 26.7125C8.33564 27.8241 8.65511 28.9003 9.29306 29.8621C9.66465 30.4223 10.1548 30.8353 10.8852 30.8983C11.288 30.9331 11.6591 30.8111 12.0288 30.6883C12.6627 30.4778 13.2939 30.2594 13.8652 30.0651C13.8652 30.698 13.877 31.3367 13.8615 31.9748C13.8489 32.4937 13.8523 33.0099 13.9545 33.5204C14.1234 34.364 14.7367 34.835 15.489 35.1798C16.8602 35.8083 18.3207 36.0169 19.8229 35.9989C20.461 35.9914 21.0956 35.9313 21.7057 35.7221C22.6494 35.3985 23.0997 34.797 23.0952 33.8406C23.0927 33.3056 23.0865 32.7706 23.076 32.2357C23.0719 32.0317 23.051 31.8281 23.0355 31.5895C23.2085 31.6553 23.3335 31.7047 23.46 31.7504C24.2096 32.0216 24.9595 32.2901 25.7245 32.5213C26.8466 32.8604 27.7958 32.6464 28.6054 31.8058C29.2575 31.1288 29.7725 30.3703 30.1827 29.5433C30.6681 28.5648 31.0406 27.5515 31.0774 26.4533C31.1143 25.3528 30.639 24.71 29.5453 24.377C28.921 24.1868 28.2918 24.0106 27.6604 23.8433C27.4547 23.7888 27.4075 23.7573 27.5655 23.5735C28.1692 22.8712 28.775 22.1696 29.2896 21.4011C29.8247 20.602 29.8672 19.7926 29.4221 18.937C28.8087 17.758 27.909 16.8188 26.849 16.0095C26.169 15.4904 25.4543 15.0227 24.6047 14.7873C23.6176 14.5138 22.8713 14.7627 22.2917 15.5659C21.9124 16.0914 21.5309 16.6158 21.1654 17.1501C21.0395 17.3341 20.9588 17.3632 20.8557 17.1488C20.8443 17.1251 20.8299 17.1024 20.8149 17.0805C20.2881 16.3126 19.7915 15.524 19.1621 14.8257C18.6945 14.307 18.128 14.0133 17.4138 14.0004ZM19.6056 17.6459C19.8921 17.6432 20.1806 17.6557 20.4711 17.6824C20.7838 17.7113 20.7831 17.7142 20.6258 17.9659C20.2168 18.6202 19.8341 19.2864 19.6103 20.0681C19.2325 19.4128 18.6398 19.3699 18.0025 19.465C17.5508 19.5323 17.1244 19.6909 16.695 19.8359C16.4452 19.9204 16.1917 19.9958 15.927 20.0171C15.5867 20.0444 15.3475 19.9124 15.2389 19.6536C15.1422 19.4234 15.2116 19.1884 15.4743 18.983C15.9589 18.604 16.5061 18.325 17.0865 18.107C17.9049 17.7998 18.7461 17.6543 19.6056 17.6459ZM23.6821 19.0808C23.8039 19.0766 23.9362 19.1154 24.0802 19.2022C24.6104 19.522 25.0524 19.9418 25.45 20.4023C26.2228 21.2975 26.6896 22.3336 26.954 23.4619C26.9975 23.6471 26.9517 23.664 26.7698 23.6247C25.9776 23.4538 25.1833 23.2871 24.3012 23.3351C24.8253 22.7724 24.6984 22.221 24.3996 21.6672C24.2099 21.3155 23.9578 21.0038 23.7076 20.6912C23.5128 20.4477 23.3203 20.2015 23.2036 19.912C23.0859 19.6203 23.1365 19.3915 23.3472 19.2166C23.4491 19.132 23.5603 19.0849 23.6821 19.0808ZM19.6429 20.8209C20.5268 22.2686 21.9061 23.1398 23.5698 23.5884C22.3978 24.8496 21.9674 26.3834 22.0463 28.0346C20.4394 27.3645 18.7878 27.425 17.1681 28.0111C17.3335 26.3275 16.7634 24.8375 15.6749 23.5424C17.3916 23.2099 18.668 22.2036 19.6429 20.8209ZM12.979 21.5689C13.5763 22.1947 14.1401 22.8457 14.9177 23.3394C14.0771 23.5387 13.8923 24.1401 13.8203 24.8207C13.7611 25.3801 13.8514 25.9424 13.7759 26.5007C13.7642 26.587 13.7487 26.6741 13.7223 26.7572C13.6321 27.0411 13.4261 27.2146 13.1605 27.2168C12.8802 27.2193 12.6999 27.0644 12.5971 26.8289C12.4196 26.4226 12.3281 25.9932 12.2637 25.5591C12.0618 24.1991 12.3305 22.91 12.9097 21.6693C12.9243 21.6379 12.9496 21.611 12.979 21.5689ZM25.9968 26.3911C26.0948 26.3896 26.1916 26.4153 26.287 26.4685C26.527 26.6021 26.6177 26.8411 26.5313 27.1852C26.4348 27.5698 26.2566 27.9242 26.0659 28.2739C25.4169 29.4634 24.4554 30.3579 23.27 31.0478C23.0794 31.1588 22.9976 31.1728 22.9797 30.9165C22.9263 30.157 22.8195 29.4046 22.5297 28.6266C23.2166 28.9131 23.7095 28.6582 24.1526 28.2414C24.4734 27.9396 24.7226 27.5828 24.9759 27.2298C25.1313 27.0133 25.2948 26.8038 25.4963 26.6236C25.6663 26.4716 25.8333 26.3936 25.9968 26.3911ZM16.728 28.6439C16.6543 29.402 17.1165 29.7712 17.7175 30.0487C18.147 30.2469 18.6074 30.3574 19.0573 30.4978C19.3266 30.5819 19.5927 30.6715 19.8139 30.8521C19.9976 31.002 20.0711 31.1857 20.0206 31.4145C19.9685 31.6501 19.8025 31.7768 19.5724 31.8208C19.0892 31.913 18.6082 31.8383 18.1335 31.7592C16.6808 31.5171 15.4482 30.8602 14.3499 29.8745C15.1833 29.525 15.9943 29.1947 16.728 28.6439Z" fill="#E1091D"/>
<path d="M41.2563 18.6569C41.1572 18.6564 41.0581 18.6567 40.959 18.6576C40.6947 18.66 40.4302 18.6671 40.1658 18.6768C39.2191 18.7114 38.2732 18.7624 37.3335 18.8932C37.1492 18.9188 37.1027 18.9754 37.103 19.1516C37.1091 22.8977 37.109 26.6439 37.1037 30.39C37.1035 30.564 37.1448 30.6411 37.3352 30.6528C37.835 30.6834 38.333 30.7421 38.833 30.7664C40.4012 30.8426 41.9681 30.8541 43.5175 30.5531C44.5948 30.3438 45.5677 29.9477 46.2749 29.0878C47.3698 27.7563 47.1383 25.8361 45.7573 24.8298C45.3606 24.5407 44.9083 24.3614 44.3986 24.2105C44.7117 24.0925 44.9795 23.9699 45.2336 23.8194C46.7595 22.9151 46.978 20.9749 45.6706 19.7974C45.0161 19.2079 44.1918 18.9503 43.3288 18.8111C42.6417 18.7003 41.9498 18.6603 41.2563 18.6569ZM41.3723 20.7025C41.7707 20.7051 42.1674 20.7453 42.5603 20.8602C43.1956 21.0457 43.5125 21.4147 43.5444 21.9759C43.5735 22.4873 43.2569 22.9282 42.6849 23.1679C42.2521 23.3494 41.7908 23.4074 41.3262 23.4291C40.953 23.4465 40.5783 23.4276 40.2045 23.436C40.0599 23.4392 40.0156 23.3932 40.0185 23.2557C40.0269 22.8699 40.0216 22.4839 40.022 22.098C40.0223 21.721 40.027 21.3438 40.0195 20.9668C40.0172 20.8506 40.0459 20.7819 40.1737 20.7705C40.5736 20.7348 40.9738 20.6999 41.3723 20.7025ZM40.771 25.433C41.3856 25.4278 41.9995 25.4302 42.5983 25.6098C43.2341 25.8006 43.7347 26.1369 43.8384 26.826C43.966 27.6746 43.4301 28.3565 42.4644 28.5981C41.9935 28.716 41.5131 28.7415 41.0294 28.7077C40.7655 28.7077 40.5015 28.7035 40.2378 28.7092C40.0786 28.7125 40.0172 28.6618 40.0185 28.4963C40.0263 27.5321 40.0225 26.5679 40.0207 25.6037C40.0205 25.5088 40.019 25.4327 40.1569 25.4346C40.3613 25.4374 40.5662 25.4348 40.771 25.433Z" fill="#06315B"/>
<path fill-rule="evenodd" clip-rule="evenodd" d="M81.1222 21.9799C82.5825 20.8768 84.7549 20.9096 85.8865 22.3707C86.4683 21.8489 87.135 21.4671 87.9175 21.3093C88.9678 21.0974 89.9884 21.1657 90.9183 21.7304C91.7725 22.2491 92.1565 23.0541 92.3202 23.9783C92.3801 24.3167 92.3861 24.6583 92.3859 25.0006C92.385 26.8081 92.3825 28.6156 92.3904 30.423C92.3913 30.6139 92.3518 30.6765 92.1398 30.6719C91.4649 30.6573 90.7892 30.6596 90.1141 30.6712C89.9086 30.6747 89.8404 30.6323 89.8418 30.4171C89.8525 28.794 89.8485 27.1707 89.8459 25.5474C89.8454 25.2495 89.8205 24.953 89.7531 24.6606C89.5742 23.8851 89.1281 23.524 88.327 23.5104C87.5984 23.498 87.0479 23.9048 86.8555 24.606C86.7738 24.9038 86.7432 25.2095 86.7432 25.5176C86.7434 27.1495 86.7393 28.7815 86.7491 30.4135C86.7503 30.6212 86.6937 30.6759 86.4806 30.6717C85.8055 30.6583 85.1298 30.658 84.4548 30.6712C84.2493 30.6752 84.1997 30.6224 84.2007 30.4257C84.2096 28.7762 84.2054 27.1266 84.2053 25.4771C84.2053 25.1603 84.1737 24.8459 84.0869 24.5408C83.8934 23.8606 83.3789 23.4914 82.6624 23.5053C81.8987 23.52 81.3867 23.9113 81.2089 24.6189C81.1443 24.8756 81.1222 25.1369 81.1224 25.401C81.1235 27.0593 81.1167 28.7176 81.1297 30.3759C81.1316 30.626 81.0516 30.6776 80.8105 30.6721C80.1356 30.6571 79.4599 30.6621 78.7847 30.6705C78.6221 30.6725 78.5675 30.6383 78.5679 30.4699C78.5736 27.5131 78.5741 24.5561 78.5673 21.5993C78.5669 21.4087 78.6455 21.3917 78.8065 21.3933C79.4909 21.4 80.1757 21.4071 80.8597 21.3906C81.087 21.3851 81.1495 21.457 81.1242 21.6559C81.1122 21.7499 81.1222 21.8466 81.1222 21.9799Z" fill="#06315B"/>
<path d="M72.4343 21.1835C71.3143 21.1918 70.2165 21.5107 69.1461 22.0785C69.0203 22.1452 69.0731 22.2055 69.1171 22.2817C69.3825 22.7405 69.6543 23.196 69.9068 23.6611C69.9957 23.8249 70.0756 23.8345 70.2337 23.7513C70.8833 23.4097 71.5835 23.229 72.3225 23.2104C73.4409 23.1823 74.2099 23.5843 74.0086 24.815C73.9648 24.806 73.9195 24.8023 73.8787 24.7873C72.8187 24.3991 71.7396 24.392 70.6579 24.6696C69.2559 25.0294 68.3459 26.0585 68.278 27.3235C68.1943 28.8827 68.9382 30.0933 70.343 30.6033C71.6407 31.0743 72.8771 30.9635 74.0345 30.096C74.0345 30.2154 74.0457 30.2958 74.0324 30.3722C73.9903 30.6156 74.0931 30.6786 74.3411 30.6724C75.0069 30.6556 75.6735 30.6588 76.3394 30.6714C76.5431 30.6751 76.5983 30.6241 76.5975 30.4248C76.5895 28.407 76.6095 26.3888 76.5869 24.3711C76.5727 23.1075 76.0099 22.1071 74.7627 21.6227C73.9773 21.3177 73.2006 21.1779 72.4343 21.1835ZM72.3347 26.4016C72.8701 26.3925 73.3891 26.5144 73.8957 26.7238C74.0058 26.7692 74.0421 26.8322 74.0358 26.9424C74.0273 27.0908 74.0337 27.24 74.0339 27.3889C74.1464 28.2115 73.6529 28.4034 73.132 28.6275C72.6809 28.8216 72.197 28.8423 71.7167 28.7153C71.1224 28.5584 70.8048 28.1272 70.8253 27.5237C70.8446 26.9531 71.1825 26.569 71.7937 26.4559C71.9759 26.4222 72.1562 26.4046 72.3347 26.4016Z" fill="#06315B"/>
<path d="M52.4814 21.1872C51.3201 21.1659 50.1837 21.477 49.0777 22.0646C48.9316 22.1422 48.9736 22.2053 49.0323 22.3055C49.2958 22.755 49.561 23.2037 49.8088 23.6612C49.897 23.8242 49.9712 23.8343 50.1338 23.7513C50.9141 23.3531 51.7455 23.1594 52.6329 23.225C53.6254 23.2984 54.0594 23.8379 53.9068 24.8143C53.8717 24.8081 53.835 24.8069 53.8026 24.7948C52.7535 24.4052 51.6802 24.381 50.6086 24.6604C49.412 24.9723 48.5141 25.6414 48.258 26.863C47.9963 28.1114 48.2855 29.2375 49.3342 30.0961C50.4305 30.9936 52.4931 31.2515 53.932 30.0882C53.932 30.2177 53.9447 30.3051 53.9296 30.3879C53.886 30.6283 53.9936 30.6776 54.2283 30.6722C54.9033 30.6566 55.5791 30.6598 56.2544 30.671C56.4481 30.6743 56.4958 30.6186 56.4952 30.4362C56.4886 28.4003 56.5111 26.3641 56.4838 24.3285C56.4665 23.0488 55.863 22.0657 54.5974 21.5969C53.8838 21.3326 53.1782 21.2001 52.4814 21.1872ZM52.2768 26.4053C52.7451 26.407 53.199 26.5065 53.6493 26.6584C53.8711 26.7333 53.9755 26.8467 53.9357 27.0781C53.9181 27.1804 53.9328 27.2878 53.9328 27.4312C53.8853 27.6335 54.023 27.8953 53.8107 28.1198C53.4774 28.4723 53.0615 28.6678 52.586 28.7542C52.3258 28.8015 52.0606 28.7976 51.797 28.7595C51.132 28.6633 50.7275 28.2174 50.7228 27.573C50.7183 26.9455 51.1148 26.5362 51.8034 26.4378C51.9631 26.415 52.1208 26.4047 52.2768 26.4053Z" fill="#06315B"/>
<path fill-rule="evenodd" clip-rule="evenodd" d="M61.0203 21.9816C62.3822 20.8833 64.4433 21.0971 65.4262 21.7192C66.3147 22.2815 66.6732 23.1227 66.7973 24.0907C66.878 24.7197 66.8395 25.3517 66.8416 25.9825C66.8466 27.4562 66.8371 28.93 66.8493 30.4036C66.8512 30.6317 66.781 30.675 66.5606 30.6704C65.8858 30.6563 65.2102 30.6577 64.5353 30.6715C64.3279 30.6757 64.2789 30.6191 64.2799 30.4233C64.2883 28.7303 64.2848 27.0372 64.2848 25.3443C64.2848 24.9085 64.2235 24.4844 63.963 24.115C63.5915 23.5881 63.0407 23.47 62.4267 23.5349C61.8081 23.6002 61.3882 23.9269 61.1622 24.4797C61.0512 24.7513 61.02 25.0393 61.02 25.3299C61.0202 27.0141 61.0163 28.6984 61.0267 30.3826C61.0281 30.6087 60.9769 30.6801 60.7288 30.6733C60.0451 30.6545 59.3604 30.6612 58.6762 30.6707C58.5078 30.6731 58.4651 30.6312 58.4654 30.4679C58.471 27.5117 58.4715 24.5555 58.4647 21.5994C58.4643 21.4092 58.5422 21.3915 58.7035 21.393C59.3877 21.3996 60.0723 21.4055 60.7563 21.3902C60.9798 21.3852 61.0487 21.4541 61.0224 21.6553C61.0101 21.7495 61.0203 21.8464 61.0203 21.9816Z" fill="#06315B"/>
<path d="M98.2074 21.1956C96.8358 21.1736 95.3828 21.8023 94.5253 23.2864C93.8385 24.4751 93.7063 25.7565 93.9067 27.082C94.2076 29.0727 95.5274 30.6633 97.898 30.8471C99.3513 30.9598 100.634 30.5636 101.673 29.5424C101.774 29.4437 101.86 29.3649 101.698 29.2282C101.335 28.922 100.992 28.5943 100.637 28.28C100.326 28.0047 100.331 28.0168 99.9833 28.2666C99.2816 28.7711 98.5013 28.9466 97.6662 28.6525C96.898 28.3819 96.5416 27.7847 96.4117 27.0329C96.379 26.8429 96.436 26.8178 96.6109 26.8192C97.5049 26.8264 98.3991 26.8225 99.2931 26.8225C100.187 26.8225 101.081 26.8188 101.975 26.8259C102.153 26.8273 102.233 26.792 102.238 26.6C102.255 25.959 102.254 25.3199 102.123 24.6881C101.891 23.5747 101.422 22.5871 100.442 21.8937C99.824 21.4562 99.0303 21.2088 98.2074 21.1956ZM98.0943 23.3343C98.2891 23.3372 98.4903 23.3729 98.6913 23.4454C99.3452 23.6815 99.622 24.3128 99.7033 24.8636C99.7271 25.0243 99.6001 24.9748 99.5255 24.9755C99.0429 24.9797 98.5603 24.9776 98.0776 24.9776V24.9768C97.5858 24.9768 97.094 24.9742 96.6023 24.9785C96.4822 24.9796 96.4241 24.9654 96.4377 24.823C96.5237 23.9254 97.2501 23.3216 98.0943 23.3343Z" fill="#06315B"/>
<path fill-rule="evenodd" clip-rule="evenodd" d="M102.802 21.3949C103.766 21.3949 104.721 21.3971 105.675 21.3925C105.823 21.3917 105.853 21.4965 105.905 21.5825C106.309 22.2556 106.741 22.9129 107.117 23.6253C107.532 22.9373 107.938 22.2782 108.327 21.6103C108.426 21.4411 108.539 21.3888 108.737 21.3912C109.637 21.4019 110.538 21.3959 111.492 21.3959C111.233 21.7806 110.999 22.1308 110.761 22.4788C110.082 23.474 109.403 24.4698 108.717 25.4613C108.62 25.6015 108.61 25.6984 108.714 25.8505C109.766 27.3755 110.805 28.9079 111.848 30.4383C111.892 30.5022 111.934 30.567 112 30.6669C111.534 30.6669 111.109 30.6669 110.684 30.6669C110.42 30.6669 110.155 30.6683 109.89 30.6665C109.589 30.6644 109.232 30.7549 109.003 30.6294C108.766 30.4989 108.647 30.162 108.487 29.9093C108.023 29.1775 107.549 28.4512 107.134 27.6666C106.601 28.622 106.004 29.5205 105.438 30.4368C105.331 30.6096 105.221 30.6741 105.011 30.6712C104.11 30.6587 103.208 30.6658 102.257 30.6658C102.409 30.4374 102.538 30.2416 102.67 30.048C103.63 28.6426 104.588 27.2366 105.553 25.8343C105.642 25.7046 105.641 25.6173 105.549 25.4852C104.684 24.2308 103.826 22.9711 102.969 21.7105C102.907 21.619 102.82 21.5352 102.802 21.3949Z" fill="#06315B"/>
</g>
<defs>
<clipPath id="clip0_1_74">
<rect width="104" height="22" fill="white" transform="translate(8 14)"/>
</clipPath>
</defs>
</svg>
