<svg width="120" height="50" viewBox="0 0 120 50" fill="none" xmlns="http://www.w3.org/2000/svg">
<g clip-path="url(#clip0_2_254)">
<path d="M40.188 25.2163H40.3093C40.9853 25.2163 41.5227 24.668 41.5227 23.9782V22.8993C41.5227 22.2626 41.4533 21.9619 41.2107 21.6259C40.864 21.1837 40.2573 20.9891 39.668 20.9891H32.3187V29.7088H39.0267C39.7893 29.7088 40.6907 29.6027 41.1587 29.0898C41.592 28.6122 41.6093 28.2408 41.6093 27.0735V26.6844C41.6267 25.8884 40.9853 25.2163 40.188 25.2163ZM34.4507 22.581H38.888C39.1133 22.581 39.5813 22.6694 39.5813 23.0408V23.9959C39.5813 24.2966 39.148 24.4204 38.9747 24.4204H34.4507V22.581ZM39.616 27.498C39.616 27.7633 39.408 27.9755 39.148 27.9755H34.4507V26.0299H39.1133C39.3907 26.0299 39.616 26.2599 39.616 26.5429V27.498Z" fill="#EC1C2D"/>
<path d="M51.992 29.7265H54.4187L49.5133 21.0068H47.52L42.7013 29.7265H44.868L45.8733 27.834H51.004L51.992 29.7265ZM46.7747 26.1361L48.456 22.9878L50.1027 26.1361H46.7747Z" fill="#EC1C2D"/>
<path d="M57.1573 21.0068H55.7013V29.7265H57.6427V25.3401L57.5907 23.9959L64.2293 29.7265H65.72V21.0068H63.7787V25.3932L63.8307 26.7374L57.1573 21.0068Z" fill="#EC1C2D"/>
<path d="M76.6573 29.7265H70.0533C69.464 29.7265 68.8227 29.585 68.476 29.1605C68.1813 28.8245 68.1293 28.2408 68.1293 27.7633V22.9701C68.1293 22.4218 68.1987 21.8381 68.5453 21.4844C68.892 21.1306 69.516 21.0068 70.0533 21.0068H76.6573C77.2467 21.0068 77.888 21.1306 78.2347 21.5551C78.512 21.8912 78.5813 22.4925 78.5813 22.9701V27.7633C78.5813 28.2585 78.5293 28.8245 78.2347 29.1605C77.888 29.585 77.2467 29.7265 76.6573 29.7265ZM70.244 22.7578V27.9755H76.4667V22.7578H70.244Z" fill="#EC1C2D"/>
<path d="M88.3227 29.7265H91.3213L87.4907 26.5075H88.6693C89.5707 26.5075 90.316 25.7646 90.316 24.8272V22.6694C90.316 21.7497 89.588 20.9891 88.6693 20.9891H81.06V29.7265H83.1747V26.5075H84.856L88.3227 29.7265ZM83.1747 22.6694H87.82C88.0453 22.6694 88.2187 22.8463 88.2187 23.0762V24.4381C88.2187 24.668 88.0453 24.8449 87.82 24.8449H83.1747V22.6694Z" fill="#EC1C2D"/>
<path d="M91.876 21.0068V22.7401H95.7067V29.7265H97.8213V22.7401H101.635V21.0068H95.7067H91.876Z" fill="#EC1C2D"/>
<path d="M109.469 24.332H105.465V22.6871H111.913V21.0068H103.351V29.7265H112V27.9578H105.465V26.0122H109.469V24.332Z" fill="#EC1C2D"/>
<path d="M19.0933 18C14.1533 18 10.1493 19.3265 10.1493 20.9714C10.1493 22.351 12.94 23.5007 16.736 23.8367L18.296 18.9374L18.5733 23.9252H19.1107C24.0507 23.9252 28.0547 22.5986 28.0547 20.9537C28.0373 19.3442 24.0333 18 19.0933 18Z" fill="#EC1C2D"/>
<path d="M16.684 24.0136C11.8653 24.0667 8 25.6231 8 27.551C8 29.1782 10.7387 30.5401 14.4827 30.9646L16.684 24.0136Z" fill="#EC1C2D"/>
<path d="M18.556 24.0667L18.9373 31C22.9067 30.6463 25.8533 29.2313 25.8533 27.551C25.8707 25.8177 22.716 24.3673 18.556 24.0667Z" fill="#EC1C2D"/>
</g>
<defs>
<clipPath id="clip0_2_254">
<rect width="104" height="13" fill="white" transform="translate(8 18)"/>
</clipPath>
</defs>
</svg>
