<svg width="120" height="50" viewBox="0 0 120 50" fill="none" xmlns="http://www.w3.org/2000/svg">
<g clip-path="url(#clip0_2_261)">
<path fill-rule="evenodd" clip-rule="evenodd" d="M99.6946 28.9562H90.8195L95.2242 14.1903L99.6946 28.9562ZM98.2981 8.31531C100.685 8.31531 101.299 8.9135 102.206 11.6162L112 40.6782H103.276L101.148 33.6921H89.4047L87.288 40.6782H82.2534L92.1298 8.31315L98.2981 8.31531ZM47.2515 22.5553L49.9454 18.5267C50.6269 17.515 50.7691 16.8811 50.7691 16.1717C50.7691 14.1947 49.0378 12.534 47.0373 12.534H42.8974V36.344H45.1918C49.0302 36.344 51.9426 34.2655 51.9426 29.3968C51.9426 25.3833 50.0649 23.2388 47.2515 22.5553ZM48.8633 40.6912H35.3068V8.30883H49.3575C55.9468 8.30883 58.2412 13.6936 54.9068 18.6595L53.3283 21.0069C64.3826 26.761 60.7865 40.6912 48.8633 40.6912ZM19.949 22.5553L22.6407 18.5267C23.3212 17.515 23.4644 16.8811 23.4644 16.1717C23.4644 14.1947 21.7299 12.534 19.7358 12.534H15.5928V36.344H17.8861C21.7245 36.344 24.6369 34.2655 24.6369 29.3968C24.6369 25.3833 22.757 23.2388 19.949 22.5553ZM21.5587 40.6912H8V8.30883H22.055C28.6422 8.30883 30.9387 13.6936 27.6021 18.6595L26.0237 21.0069C37.0758 26.761 33.4818 40.6912 21.5587 40.6912Z" fill="#1A559B"/>
<path d="M80.9345 8.30883H86.0315L76.1938 40.675L68.4471 40.6707L57.8924 8.31315L63.5977 8.30883C65.7974 8.30883 66.3777 8.87787 67.5298 12.5448L73.6378 32.8941L80.9345 8.30883Z" fill="#1A559B"/>
</g>
<defs>
<clipPath id="clip0_2_261">
<rect width="104" height="33" fill="white" transform="translate(8 8)"/>
</clipPath>
</defs>
</svg>
