<svg width="120" height="50" viewBox="0 0 120 50" fill="none" xmlns="http://www.w3.org/2000/svg">
<path d="M112 6H8V43H112V6Z" fill="#36904E"/>
<mask id="mask0_2_230" style="mask-type:luminance" maskUnits="userSpaceOnUse" x="8" y="6" width="104" height="38">
<path d="M112 6H8V43.4053H112V6Z" fill="white"/>
</mask>
<g mask="url(#mask0_2_230)">
<path d="M96.8333 19.0347C96.8333 19.0347 97.5787 18.6707 98.064 18.9133C98.5667 19.156 108.828 30.0587 108.828 30.0587C108.828 30.0587 109.573 31.0467 109.937 31.0467C110.301 31.0467 110.683 26.592 110.44 25.24C110.197 23.8707 103.888 13.7307 102.155 13.488C100.421 13.2107 96.8333 19.0347 96.8333 19.0347Z" fill="#FBB040"/>
</g>
<mask id="mask1_2_230" style="mask-type:luminance" maskUnits="userSpaceOnUse" x="8" y="6" width="104" height="38">
<path d="M112 6H8V43.4053H112V6Z" fill="white"/>
</mask>
<g mask="url(#mask1_2_230)">
<path d="M106.869 18.9307C106.869 18.9307 106.124 18.5667 105.639 18.8093C105.136 19.052 94.8747 29.9547 94.8747 29.9547C94.8747 29.9547 94.1293 30.9427 93.7653 30.9427C93.4013 30.9427 93.02 26.488 93.2627 25.136C93.5053 23.7667 99.8147 13.6267 101.548 13.384C103.281 13.1067 106.869 18.9307 106.869 18.9307Z" fill="#ED1D24"/>
</g>
<mask id="mask2_2_230" style="mask-type:luminance" maskUnits="userSpaceOnUse" x="8" y="6" width="104" height="38">
<path d="M112 6H8V43.4053H112V6Z" fill="white"/>
</mask>
<g mask="url(#mask2_2_230)">
<path d="M24.4667 18.4627C24.8133 18.3413 25.3853 18.2547 25.94 18.2547C26.7547 18.2547 27.2747 18.4627 27.656 18.9133C27.9853 19.26 28.1933 19.7973 28.1933 20.4907C28.1933 21.3747 27.7773 22.12 27.136 22.4493V22.484C27.7253 22.692 28.436 23.3853 28.436 24.72C28.436 25.4827 28.228 26.0893 27.8987 26.5053C27.4653 27.0773 26.772 27.3373 25.7493 27.3373C25.1947 27.3373 24.7613 27.2853 24.5013 27.2333V18.4627H24.4667ZM25.264 22.12H25.992C26.8413 22.12 27.344 21.4613 27.344 20.612C27.344 19.572 26.7893 19.156 25.9747 19.156C25.6107 19.156 25.3853 19.1907 25.264 19.2427V22.12ZM25.264 26.4013C25.4373 26.436 25.6453 26.4533 25.94 26.4533C26.772 26.4533 27.552 26.02 27.552 24.72C27.552 23.5067 26.824 23.004 25.94 23.004H25.264V26.4013Z" fill="white"/>
</g>
<mask id="mask3_2_230" style="mask-type:luminance" maskUnits="userSpaceOnUse" x="8" y="6" width="104" height="38">
<path d="M112 6H8V43.4053H112V6Z" fill="white"/>
</mask>
<g mask="url(#mask3_2_230)">
<path d="M33.584 24.0093C33.584 26.384 32.4227 27.424 31.348 27.424C30.1347 27.424 29.1987 26.1413 29.1987 24.1133C29.1987 21.9813 30.1867 20.716 31.4347 20.716C32.7 20.716 33.584 22.0507 33.584 24.0093ZM30.0133 24.0787C30.0133 25.4827 30.568 26.54 31.3653 26.54C32.1453 26.54 32.7347 25.5 32.7347 24.044C32.7347 22.952 32.3533 21.5827 31.3827 21.5827C30.4293 21.5827 30.0133 22.8653 30.0133 24.0787Z" fill="white"/>
</g>
<mask id="mask4_2_230" style="mask-type:luminance" maskUnits="userSpaceOnUse" x="8" y="6" width="104" height="38">
<path d="M112 6H8V43.4053H112V6Z" fill="white"/>
</mask>
<g mask="url(#mask4_2_230)">
<path d="M38.4893 17.8387V25.604C38.4893 26.176 38.5067 26.8347 38.524 27.268H37.796L37.7613 26.1587H37.7267C37.484 26.8693 36.9467 27.424 36.2187 27.424C35.1267 27.424 34.2773 26.1067 34.2773 24.148C34.26 22.016 35.2133 20.716 36.288 20.716C36.9813 20.716 37.4493 21.184 37.64 21.6867H37.6573V17.856H38.4893V17.8387ZM37.6747 23.4547C37.6747 23.316 37.6573 23.108 37.64 22.9693C37.5187 22.2413 37.068 21.6347 36.4613 21.6347C35.612 21.6347 35.1093 22.692 35.1093 24.096C35.1093 25.396 35.56 26.4707 36.444 26.4707C36.9987 26.4707 37.5013 25.9333 37.64 25.0667C37.6747 24.9107 37.6747 24.7547 37.6747 24.564V23.4547Z" fill="white"/>
</g>
<mask id="mask5_2_230" style="mask-type:luminance" maskUnits="userSpaceOnUse" x="8" y="6" width="104" height="38">
<path d="M112 6H8V43.4053H112V6Z" fill="white"/>
</mask>
<g mask="url(#mask5_2_230)">
<path d="M40.3093 24.2693C40.3267 25.8467 41.02 26.5053 41.852 26.5053C42.4413 26.5053 42.8053 26.3667 43.1 26.176L43.256 27.008C42.9613 27.1987 42.4587 27.424 41.748 27.424C40.3613 27.424 39.5293 26.1067 39.5293 24.1653C39.5293 22.224 40.3267 20.716 41.644 20.716C43.1173 20.716 43.4987 22.5533 43.4987 23.732C43.4987 23.9747 43.4813 24.148 43.464 24.2693H40.3093ZM42.7187 23.4373C42.736 22.7093 42.5107 21.548 41.592 21.548C40.76 21.548 40.396 22.6227 40.344 23.4373H42.7187Z" fill="white"/>
</g>
<mask id="mask6_2_230" style="mask-type:luminance" maskUnits="userSpaceOnUse" x="8" y="6" width="104" height="38">
<path d="M112 6H8V43.4053H112V6Z" fill="white"/>
</mask>
<g mask="url(#mask6_2_230)">
<path d="M48.3693 26.332C48.3693 27.8227 48.1613 28.7067 47.728 29.2787C47.2773 29.8507 46.6533 30.0413 46.0813 30.0413C45.544 30.0413 44.9547 29.8507 44.5907 29.504L44.7987 28.6027C45.0933 28.88 45.5613 29.1227 46.116 29.1227C46.948 29.1227 47.572 28.4987 47.572 26.8693V26.1587H47.5547C47.312 26.7653 46.8267 27.2333 46.116 27.2333C45.0067 27.2333 44.2093 25.8813 44.2093 24.096C44.2093 21.912 45.1973 20.6987 46.2373 20.6987C47.0173 20.6987 47.4333 21.2707 47.6413 21.808H47.6587L47.6933 20.8373H48.4213C48.3867 21.288 48.3867 21.8253 48.3867 22.588V26.332H48.3693ZM47.5547 23.3853C47.5547 23.1773 47.5373 23.0213 47.5027 22.8653C47.3467 22.172 46.9653 21.6173 46.3587 21.6173C45.5787 21.6173 45.024 22.5533 45.024 24.044C45.024 25.3093 45.4747 26.3493 46.3587 26.3493C46.8613 26.3493 47.3293 25.8987 47.4853 25.1533C47.5373 24.9453 47.5547 24.7373 47.5547 24.5293V23.3853Z" fill="white"/>
</g>
<mask id="mask7_2_230" style="mask-type:luminance" maskUnits="userSpaceOnUse" x="8" y="6" width="104" height="38">
<path d="M112 6H8V43.4053H112V6Z" fill="white"/>
</mask>
<g mask="url(#mask7_2_230)">
<path d="M52.876 25.7253C52.876 26.28 52.8933 26.8173 52.9453 27.268H52.2173L52.148 26.4533H52.1133C51.8707 26.956 51.3853 27.4067 50.744 27.4067C49.8253 27.4067 49.3747 26.488 49.3747 25.5693C49.3747 24.0093 50.3453 23.16 52.0787 23.1773V23.0387C52.0787 22.5187 51.9747 21.548 51.056 21.5653C50.6227 21.5653 50.1893 21.7387 49.8773 22.0507L49.6867 21.2707C50.0507 20.9413 50.6053 20.716 51.1773 20.716C52.564 20.716 52.8933 22.0507 52.8933 23.3333V25.7253H52.876ZM52.096 23.992C51.212 23.9573 50.1893 24.2 50.1893 25.4307C50.1893 26.1933 50.5533 26.54 50.952 26.54C51.5413 26.54 51.9227 26.0027 52.0613 25.4653C52.096 25.3267 52.096 25.2053 52.096 25.1013V23.992Z" fill="white"/>
</g>
<mask id="mask8_2_230" style="mask-type:luminance" maskUnits="userSpaceOnUse" x="8" y="6" width="104" height="38">
<path d="M112 6H8V43.4053H112V6Z" fill="white"/>
</mask>
<g mask="url(#mask8_2_230)">
<path d="M56.0307 25.2053L55.4933 27.3893H53.76L56.0307 18.8613H58.2493L60.572 27.3893H58.752L58.18 25.2053H56.0307ZM57.92 23.7493L57.452 21.9293C57.3133 21.4267 57.192 20.7853 57.0707 20.2827H57.0533C56.9493 20.7853 56.828 21.444 56.7067 21.9293L56.256 23.7493H57.92Z" fill="white"/>
</g>
<mask id="mask9_2_230" style="mask-type:luminance" maskUnits="userSpaceOnUse" x="8" y="6" width="104" height="38">
<path d="M112 6H8V43.4053H112V6Z" fill="white"/>
</mask>
<g mask="url(#mask9_2_230)">
<path d="M66.4307 25.396C66.4307 26.2107 66.448 26.8693 66.4827 27.3893H65.0267L64.9573 26.5227H64.9227C64.7147 26.904 64.1947 27.528 63.224 27.528C62.1147 27.528 61.3173 26.748 61.3173 24.824V21.184H62.9987V24.512C62.9987 25.4133 63.2587 25.9507 63.848 25.9507C64.316 25.9507 64.5933 25.5867 64.6973 25.2747C64.7493 25.1533 64.7667 25.0147 64.7667 24.8587V21.1667H66.448V25.396H66.4307Z" fill="white"/>
</g>
<mask id="mask10_2_230" style="mask-type:luminance" maskUnits="userSpaceOnUse" x="8" y="6" width="104" height="38">
<path d="M112 6H8V43.4053H112V6Z" fill="white"/>
</mask>
<g mask="url(#mask10_2_230)">
<path d="M67.7827 23.2293C67.7827 22.3107 67.7653 21.7213 67.7307 21.184H69.1693L69.2387 22.328H69.2907C69.568 21.4093 70.2267 21.0453 70.7467 21.0453C70.9027 21.0453 70.972 21.0627 71.0933 21.08V22.9C70.9547 22.8827 70.8333 22.848 70.6427 22.848C70.0187 22.848 69.6027 23.2293 69.4987 23.8187C69.4813 23.94 69.464 24.096 69.464 24.252V27.3893H67.7827V23.2293Z" fill="white"/>
</g>
<mask id="mask11_2_230" style="mask-type:luminance" maskUnits="userSpaceOnUse" x="8" y="6" width="104" height="38">
<path d="M112 6H8V43.4053H112V6Z" fill="white"/>
</mask>
<g mask="url(#mask11_2_230)">
<path d="M71.9947 23.2293C71.9947 22.3107 71.9773 21.7213 71.9427 21.184H73.3813L73.4507 22.328H73.5027C73.78 21.4093 74.4387 21.0453 74.9587 21.0453C75.1147 21.0453 75.184 21.0627 75.3053 21.08V22.9C75.1667 22.8827 75.0453 22.848 74.8547 22.848C74.2307 22.848 73.8147 23.2293 73.7107 23.8187C73.6933 23.94 73.676 24.096 73.676 24.252V27.3893H71.9947V23.2293Z" fill="white"/>
</g>
<mask id="mask12_2_230" style="mask-type:luminance" maskUnits="userSpaceOnUse" x="8" y="6" width="104" height="38">
<path d="M112 6H8V43.4053H112V6Z" fill="white"/>
</mask>
<g mask="url(#mask12_2_230)">
<path d="M77.4027 24.9107C77.4547 25.708 78.148 26.0893 78.928 26.0893C79.5 26.0893 79.968 26.0027 80.4187 25.8293L80.644 27.1293C80.0893 27.3893 79.4133 27.528 78.6853 27.528C76.848 27.528 75.7907 26.3147 75.7907 24.3733C75.7907 22.796 76.64 21.0627 78.5293 21.0627C80.28 21.0627 80.9387 22.6227 80.9387 24.148C80.9387 24.4773 80.904 24.772 80.8867 24.9107H77.4027ZM79.396 23.5933C79.396 23.1253 79.2227 22.3453 78.4427 22.3453C77.732 22.3453 77.4373 23.0907 77.4027 23.5933H79.396Z" fill="white"/>
</g>
<mask id="mask13_2_230" style="mask-type:luminance" maskUnits="userSpaceOnUse" x="8" y="6" width="104" height="38">
<path d="M112 6H8V43.4053H112V6Z" fill="white"/>
</mask>
<g mask="url(#mask13_2_230)">
<path d="M81.9613 23.2293C81.9613 22.3107 81.944 21.7213 81.9093 21.184H83.348L83.4173 22.328H83.4693C83.7467 21.4093 84.4053 21.0453 84.9253 21.0453C85.0813 21.0453 85.1507 21.0627 85.272 21.08V22.9C85.1333 22.8827 85.012 22.848 84.8213 22.848C84.1973 22.848 83.7813 23.2293 83.6773 23.8187C83.66 23.94 83.6427 24.096 83.6427 24.252V27.3893H81.9613V23.2293Z" fill="white"/>
</g>
<mask id="mask14_2_230" style="mask-type:luminance" maskUnits="userSpaceOnUse" x="8" y="6" width="104" height="38">
<path d="M112 6H8V43.4053H112V6Z" fill="white"/>
</mask>
<g mask="url(#mask14_2_230)">
<path d="M90.5413 25.8987C90.5413 26.488 90.5587 27.06 90.628 27.3893H89.12L89.016 26.7653H88.9813C88.6173 27.2507 88.08 27.528 87.4387 27.528C86.3467 27.528 85.688 26.6093 85.688 25.6213C85.688 24.0093 86.9533 23.2467 88.86 23.2467V23.1773C88.86 22.8307 88.704 22.3627 87.872 22.3627C87.3173 22.3627 86.728 22.5707 86.3813 22.8307L86.0693 21.5827C86.4507 21.34 87.196 21.028 88.1667 21.028C89.9693 21.028 90.5413 22.2413 90.5413 23.7147V25.8987ZM88.9293 24.46C88.0453 24.46 87.352 24.7027 87.352 25.4307C87.352 25.9333 87.6467 26.1587 88.0107 26.1587C88.4267 26.1587 88.7733 25.8467 88.8773 25.448C88.8947 25.344 88.912 25.24 88.912 25.1187V24.46H88.9293Z" fill="white"/>
</g>
<mask id="mask15_2_230" style="mask-type:luminance" maskUnits="userSpaceOnUse" x="8" y="6" width="104" height="38">
<path d="M112 6H8V43.4053H112V6Z" fill="white"/>
</mask>
<g mask="url(#mask15_2_230)">
<path d="M8 18.6013V35.8653C8 35.8653 12.3853 37.6507 18.2787 37.7893C24.172 37.928 112 37.7893 112 37.7893V35.692H38.6973C38.6973 35.692 19.648 34.08 8 18.6013Z" fill="#FBB040"/>
</g>
<mask id="mask16_2_230" style="mask-type:luminance" maskUnits="userSpaceOnUse" x="8" y="6" width="104" height="38">
<path d="M112 6H8V43.4053H112V6Z" fill="white"/>
</mask>
<g mask="url(#mask16_2_230)">
<path d="M18.2787 39.7133C14.188 39.4533 8.17334 37.4253 8.17334 37.4253L8.06934 42.1053C13.9627 42.244 111.913 42.1053 111.913 42.1053V40.008H31.088C31.088 40.008 22.3693 39.9733 18.2787 39.7133Z" fill="#ED1D24"/>
</g>
</svg>
