<svg width="120" height="50" viewBox="0 0 120 50" fill="none" xmlns="http://www.w3.org/2000/svg">
<g clip-path="url(#clip0_1_29)">
<path d="M108.252 42.2259H107.574V41.8864H109.281V42.2259H108.603V44.4529H108.252V42.2259ZM109.771 41.8864H110.154L110.889 43.2111L111.624 41.8864H112V44.4529H111.657V42.4908L110.906 43.8568H110.865L110.113 42.4908V44.4529H109.771L109.771 41.8864Z" fill="#EE2E24"/>
<path d="M106.431 5H8V45H106.431V5Z" fill="white"/>
<path d="M105.872 5.56681H8.55861V37.9551H105.872V5.56681Z" fill="#EE2E24"/>
<path d="M105.872 39.5747H8.55861V44.4332H105.872V39.5747Z" fill="#F99B2A"/>
<path d="M29.0032 16.9485H32.0643V29.006H29.0032V16.9485ZM37.399 23.1429C38.6094 23.1429 39.4735 22.539 39.4735 21.2861C39.4735 20.0592 38.6607 19.5071 37.4179 19.5071H36.5409V23.1429H37.399ZM58.5974 26.2591H62.7154V29.006H55.4915V16.9485H58.5974V26.2591ZM63.7083 16.9485H71.5276V19.6889H66.7694V21.6884H71.3165V24.2207H66.7694V26.2591H71.5406V29.006H63.7083V16.9485ZM90.1963 22.7464L94.417 16.9485H90.0815L86.1744 22.4998V16.9485H82.3828V29.006H86.1743V23.4546L92.9184 32.272C91.1691 33.3584 89.1543 33.9254 87.103 33.9084C85.6788 33.9373 84.2635 33.6743 82.9421 33.135C81.6207 32.5957 80.4204 31.7914 79.4131 30.7702C78.4059 29.749 77.6125 28.5321 77.0806 27.1924C76.5487 25.8526 76.2892 24.4178 76.3178 22.9739C76.3244 20.0785 77.4636 17.3039 79.4855 15.2589C81.5073 13.2139 84.2467 12.0654 87.1027 12.0654C89.9586 12.0654 92.698 13.2139 94.7198 15.2589C96.7417 17.3039 97.8809 20.0785 97.8876 22.9739C97.9079 25.4176 97.1288 27.7991 95.672 29.7461L90.1963 22.7464ZM42.5096 20.9352C42.534 21.6726 42.3362 22.4 41.9427 23.0206C41.5491 23.6412 40.9784 24.1256 40.3065 24.4091L43.3362 29.006H39.7236L36.5409 23.9545V29.006H33.4799V16.9485H37.3031C40.6461 16.9485 42.5096 18.2863 42.5096 20.9352ZM22.8613 19.5849C22.4273 19.5837 21.9975 19.6714 21.5977 19.8427C21.198 20.0141 20.8365 20.2656 20.535 20.5821C20.2336 20.8986 19.9983 21.2737 19.8434 21.6847C19.6884 22.0957 19.617 22.5342 19.6335 22.9739C19.6165 23.4138 19.6875 23.8526 19.8422 24.2639C19.997 24.6752 20.2322 25.0505 20.5338 25.3672C20.8353 25.6839 21.197 25.9355 21.597 26.1067C21.997 26.2779 22.4271 26.3653 22.8613 26.3636C23.4461 26.3612 24.0203 26.205 24.5277 25.9102C25.0351 25.6154 25.4584 25.1922 25.7561 24.6819L28.1191 26.2468C27.5649 27.17 26.7821 27.9302 25.8484 28.4518C24.9148 28.9733 23.8628 29.2382 22.7969 29.22C21.9806 29.2323 21.17 29.0799 20.4123 28.7716C19.6546 28.4634 18.9649 28.0055 18.3834 27.4246C17.8018 26.8437 17.34 26.1513 17.0248 25.3878C16.7095 24.6242 16.5472 23.8048 16.5472 22.9771C16.5472 22.1493 16.7095 21.3299 17.0248 20.5664C17.34 19.8028 17.8018 19.1105 18.3834 18.5295C18.9649 17.9486 19.6546 17.4907 20.4123 17.1825C21.17 16.8742 21.9806 16.7218 22.7969 16.7341C23.8672 16.7039 24.9262 16.9613 25.8666 17.4803C26.8069 17.9992 27.595 18.7612 28.151 19.6889L25.7296 21.2991C25.4467 20.7791 25.0313 20.3457 24.5266 20.0442C24.022 19.7427 23.447 19.584 22.8613 19.5849ZM49.4333 19.5849C48.9992 19.5836 48.5694 19.6713 48.1696 19.8426C47.7698 20.0139 47.4083 20.2654 47.1068 20.5819C46.8053 20.8985 46.57 21.2735 46.415 21.6846C46.2601 22.0956 46.1887 22.5342 46.2051 22.9739C46.1881 23.4138 46.2592 23.8527 46.4139 24.264C46.5687 24.6753 46.8039 25.0507 47.1055 25.3674C47.4072 25.6841 47.7689 25.9356 48.1689 26.1068C48.569 26.278 48.9991 26.3654 49.4333 26.3636C50.018 26.3612 50.5922 26.205 51.0995 25.9102C51.6068 25.6154 52.03 25.1922 52.3276 24.6819L54.6911 26.2468C53.9827 27.3894 52.9264 28.2669 51.6821 28.7465C50.4379 29.2261 49.0733 29.2817 47.7951 28.9048C46.5169 28.528 45.3946 27.7392 44.5981 26.6579C43.8016 25.5766 43.3742 24.2616 43.3806 22.9121C43.3871 21.5625 43.8271 20.2518 44.6339 19.1784C45.4408 18.105 46.5706 17.3273 47.8523 16.9631C49.1341 16.5988 50.498 16.6678 51.7376 17.1596C52.9772 17.6515 54.025 18.5393 54.7225 19.6889L52.3019 21.2991C52.0189 20.7792 51.6034 20.3458 51.0988 20.0443C50.5942 19.7428 50.019 19.5841 49.4333 19.5849Z" fill="white"/>
</g>
<defs>
<clipPath id="clip0_1_29">
<rect width="104" height="40" fill="white" transform="translate(8 5)"/>
</clipPath>
</defs>
</svg>
