<svg width="120" height="50" viewBox="0 0 120 50" fill="none" xmlns="http://www.w3.org/2000/svg">
<g clip-path="url(#clip0_1_58)">
<mask id="mask0_1_58" style="mask-type:luminance" maskUnits="userSpaceOnUse" x="8" y="16" width="104" height="18">
<path d="M112 16H8V34H112V16Z" fill="white"/>
</mask>
<g mask="url(#mask0_1_58)">
<path fill-rule="evenodd" clip-rule="evenodd" d="M40.2385 24.9482C40.2385 29.918 44.0858 33.7713 49.0368 33.7713C50.4362 33.7713 51.6352 33.4923 53.1132 32.7862V28.9041C51.8137 30.2236 50.6621 30.756 49.1881 30.756C45.9134 30.756 43.5892 28.3475 43.5892 24.9234C43.5892 21.6775 45.9869 19.1168 49.0368 19.1168C50.5875 19.1168 51.7616 19.678 53.1132 21.0189V17.1389C51.6861 16.4047 50.5129 16.1002 49.1134 16.1002C44.1875 16.1002 40.2385 20.0319 40.2385 24.9482ZM31.8947 20.8419C31.8947 21.7556 32.4672 22.2383 34.4186 22.9707C38.1169 24.3432 39.2129 25.5587 39.2129 28.2454C39.2129 31.5182 36.8425 33.7971 33.4641 33.7971C30.9898 33.7971 29.1907 32.8089 27.6928 30.5782L29.7933 28.5264C30.5417 29.9947 31.791 30.7818 33.3418 30.7818C34.7927 30.7818 35.8663 29.7668 35.8663 28.397C35.8663 27.687 35.5411 27.0775 34.8912 26.647C34.5647 26.4431 33.9168 26.1401 32.6436 25.6841C29.5898 24.5697 28.5428 23.3769 28.5428 21.0476C28.5428 18.2806 30.7923 16.2032 33.7417 16.2032C35.5693 16.2032 37.2417 16.8369 38.6397 18.0773L36.9385 20.3368C36.0916 19.374 35.2905 18.9676 34.3168 18.9676C32.9155 18.9676 31.8947 19.7771 31.8947 20.8419ZM23.2167 33.3907H26.4684V16.4826H23.2167V33.3907ZM16.5708 29.1839C15.5495 30.1201 14.2222 30.5283 12.1215 30.5283H11.2489V19.3469H12.1215C14.2222 19.3469 15.4973 19.7285 16.5708 20.7149C17.6952 21.73 18.3714 23.3043 18.3714 24.9236C18.3714 26.5469 17.6952 28.1689 16.5708 29.1839ZM12.7726 16.4826H8V33.3899H12.7475C15.2719 33.3899 17.0944 32.7863 18.6947 31.4381C20.5964 29.8425 21.7208 27.4367 21.7208 24.9484C21.7208 19.9585 18.0456 16.4826 12.7726 16.4826ZM74.4483 16.4826L78.8929 27.8396L83.3958 16.4826H86.9203L79.7193 33.8244H77.9694L70.896 16.4826H74.4483ZM88.3905 33.3904H97.6112V30.5279H91.6394V25.9639H97.3916V23.1H91.6394V19.3473H97.6112V16.4822H88.3905V33.3904ZM103.012 24.2665H103.962C106.039 24.2665 107.139 23.3513 107.139 21.6516C107.139 20.0063 106.039 19.1459 104.013 19.1459H103.012V24.2665ZM104.586 16.482C108.335 16.482 110.485 18.3084 110.485 21.474C110.485 24.0627 109.136 25.7624 106.687 26.2673L111.935 33.3902H107.937L103.436 26.5978H103.012V33.3902H99.7644V16.482H104.586Z" fill="#1D1D1B"/>
<path fill-rule="evenodd" clip-rule="evenodd" d="M70.5124 29.8413C73.1513 25.6556 71.9462 20.0951 67.8202 17.4186C63.6941 14.7421 58.2112 15.9639 55.5722 20.1496C52.934 24.3341 54.1396 29.8965 58.2656 32.573C62.3914 35.2494 67.874 34.0258 70.5124 29.8413Z" fill="url(#paint0_linear_1_58)"/>
</g>
</g>
<defs>
<linearGradient id="paint0_linear_1_58" x1="75.2897" y1="22.264" x2="60.2267" y2="12.7671" gradientUnits="userSpaceOnUse">
<stop stop-color="#F6A000"/>
<stop offset="0.623918" stop-color="#E47E02"/>
<stop offset="1" stop-color="#D36002"/>
</linearGradient>
<clipPath id="clip0_1_58">
<rect width="104" height="18" fill="white" transform="translate(8 16)"/>
</clipPath>
</defs>
</svg>
