<svg width="120" height="50" viewBox="0 0 120 50" fill="none" xmlns="http://www.w3.org/2000/svg">
<g clip-path="url(#clip0_2_35)">
<path d="M50.0094 11H22.0252V38.9668H50.0094V11Z" fill="white"/>
<path d="M64.0014 25.0166L50.0094 11V39L64.0014 25.0166Z" fill="#DB0011"/>
<path d="M36.0173 25.0166L50.0094 11H22.0252L36.0173 25.0166Z" fill="#DB0011"/>
<path d="M8 25.0166L22.0252 39V11L8 25.0166Z" fill="#DB0011"/>
<path d="M36.0173 25.0166L22.0252 39H50.0094L36.0173 25.0166Z" fill="#DB0011"/>
<path d="M76.2786 25.8385H71.2114V30.8399H68.6777V19.1269H71.2114V23.9183H76.2823V19.1269H78.8085V30.8399H76.2749L76.2786 25.8385Z" fill="black"/>
<path d="M84.9379 31.0684C82.4042 31.0684 80.3279 30.0475 80.2948 27.2501H82.8284C82.8616 28.4995 83.5844 29.2588 84.9674 29.2588C85.9889 29.2588 87.1801 28.7317 87.1801 27.5818C87.1801 26.6604 86.3909 26.3987 85.0743 26.0043L84.2187 25.7758C82.3747 25.2488 80.5308 24.5264 80.5308 22.4182C80.5308 19.8198 82.9685 18.9315 85.1739 18.9315C87.4457 18.9315 89.4224 19.7203 89.4519 22.3187H86.922C86.8224 21.2646 86.1844 20.6417 85.0116 20.6417C84.0564 20.6417 83.1345 21.1356 83.1345 22.1897C83.1345 23.0448 83.9237 23.2954 85.5722 23.8335L86.5606 24.1283C88.5705 24.7549 89.8539 25.4441 89.8539 27.4196C89.8096 30.0475 87.2428 31.0684 84.9379 31.0684Z" fill="black"/>
<path d="M91.259 19.1564H95.3416C96.1124 19.1185 96.8851 19.1629 97.6465 19.2891C99.0627 19.6171 100.147 20.5385 100.147 22.1196C100.147 23.6345 99.1918 24.39 97.8088 24.7512C99.3872 25.0461 100.575 25.8385 100.575 27.5818C100.575 30.2465 97.9416 30.8399 95.8984 30.8399H91.2885L91.259 19.1564ZM95.3416 24.0251C96.4479 24.0251 97.6133 23.7966 97.6133 22.4477C97.6133 21.2314 96.5586 20.8997 95.5075 20.8997H93.7299V24.0251H95.3416ZM95.5702 29.0929C96.754 29.0929 97.9084 28.8312 97.9084 27.3828C97.9084 25.9343 96.92 25.6726 95.6956 25.6726H93.6857V29.0929H95.5702Z" fill="black"/>
<path d="M107.161 31.0684C103.374 31.0684 101.696 28.6654 101.696 25.0792C101.696 21.4931 103.573 18.8947 107.294 18.8947C109.632 18.8947 111.904 19.9488 111.97 22.5804H109.337C109.205 21.3973 108.415 20.8039 107.298 20.8039C104.993 20.8039 104.303 23.2733 104.303 25.1456C104.303 27.0179 104.993 29.1998 107.202 29.1998C108.353 29.1998 109.212 28.5733 109.374 27.3902H112C111.738 30.0807 109.595 31.0684 107.161 31.0684Z" fill="black"/>
</g>
<defs>
<clipPath id="clip0_2_35">
<rect width="104" height="28" fill="white" transform="translate(8 11)"/>
</clipPath>
</defs>
</svg>
