<svg width="120" height="50" viewBox="0 0 120 50" fill="none" xmlns="http://www.w3.org/2000/svg">
<path d="M66.8925 25.4463C66.8925 36.1867 58.1857 44.8925 47.4458 44.8925C36.706 44.8925 28 36.1867 28 25.4463C28 14.7069 36.7059 6 47.4458 6C58.1857 6 66.8925 14.7069 66.8925 25.4463Z" fill="#D9222A"/>
<path d="M73.5532 6C68.5288 6 63.9503 7.90623 60.499 11.0339C59.7963 11.6712 59.1399 12.3597 58.5355 13.0918H62.4644C63.0015 13.745 63.4963 14.432 63.9468 15.1515H57.0532C56.6401 15.8127 56.2651 16.4998 55.9328 17.2107H65.0667C65.3787 17.8779 65.654 18.5644 65.8901 19.2694H55.1096C54.8848 19.9401 54.6956 20.6267 54.5444 21.3286H66.4547C66.7404 22.6557 66.8925 24.0334 66.8925 25.4462C66.8925 27.6057 66.54 29.6833 65.89 31.6234H55.1094C55.3451 32.3289 55.6205 33.0159 55.9323 33.6826H65.0666C64.7336 34.3936 64.3594 35.0806 63.9458 35.7423H57.0531C57.5031 36.4605 57.9987 37.1484 58.5355 37.8002H62.4635C61.86 38.5337 61.2032 39.223 60.4995 39.8599C63.9507 42.9871 68.5288 44.8924 73.5532 44.8924C84.2931 44.8925 93 36.1866 93 25.4463C93 14.7073 84.2931 6 73.5532 6Z" fill="#EE9F2D"/>
<path d="M90.408 36.286C90.408 35.9393 90.6888 35.6576 91.0359 35.6576C91.383 35.6576 91.6638 35.9393 91.6638 36.286C91.6638 36.6326 91.383 36.9143 91.0359 36.9143C90.6888 36.9143 90.408 36.6326 90.408 36.286ZM91.0359 36.7635C91.2996 36.7635 91.5135 36.5496 91.5135 36.286C91.5135 36.0219 91.2995 35.8089 91.0359 35.8089C90.7718 35.8089 90.5588 36.022 90.5588 36.286C90.5588 36.5496 90.7719 36.7635 91.0359 36.7635ZM90.9511 36.5621H90.8225V36.0101H91.0554C91.1042 36.0101 91.1538 36.0101 91.1967 36.0376C91.2414 36.0678 91.2667 36.1211 91.2667 36.1762C91.2667 36.238 91.2301 36.2958 91.1709 36.3184L91.2725 36.5621H91.13L91.0456 36.3436H90.9512V36.5621H90.9511ZM90.9511 36.249H91.0224C91.049 36.249 91.0771 36.2512 91.101 36.2381C91.1222 36.2246 91.1331 36.1992 91.1331 36.1749C91.1331 36.1537 91.12 36.1292 91.1019 36.1188C91.0794 36.1049 91.0437 36.1079 91.0198 36.1079H90.9511V36.249Z" fill="black"/>
<path d="M42.9053 27.5754C42.6836 27.5496 42.5862 27.5428 42.434 27.5428C41.2374 27.5428 40.6316 27.9532 40.6316 28.7635C40.6316 29.2631 40.9272 29.5809 41.3885 29.5809C42.2485 29.5809 42.8682 28.7621 42.9053 27.5754ZM44.4404 31.15H42.6913L42.7315 30.3184C42.1978 30.9756 41.4861 31.288 40.5187 31.288C39.3743 31.288 38.5899 30.3943 38.5899 29.0965C38.5899 27.1439 39.9545 26.0046 42.2967 26.0046C42.5359 26.0046 42.843 26.0261 43.157 26.0663C43.2225 25.8019 43.2397 25.6886 43.2397 25.5463C43.2397 25.0146 42.8718 24.8165 41.8855 24.8165C40.8528 24.8048 40.0009 25.0625 39.6511 25.1776C39.6732 25.0444 39.9436 23.3728 39.9436 23.3728C40.9958 23.0645 41.6895 22.9485 42.4705 22.9485C44.2831 22.9485 45.2434 23.7624 45.2416 25.3006C45.2451 25.7128 45.1769 26.2215 45.0705 26.89C44.8873 28.0526 44.4942 30.5429 44.4404 31.15Z" fill="black"/>
<path d="M37.7067 31.15H35.5956L36.8048 23.5671L34.1046 31.15H32.666L32.4881 23.6105L31.2171 31.15H29.2408L30.8915 21.2858H33.9271L34.1113 26.8072L35.9629 21.2858H39.3394L37.7067 31.15Z" fill="black"/>
<path d="M76.1622 27.5754C75.9415 27.5496 75.8436 27.5428 75.6918 27.5428C74.4957 27.5428 73.8899 27.9532 73.8899 28.7635C73.8899 29.2631 74.1851 29.5809 74.6464 29.5809C75.5064 29.5809 76.1265 28.7621 76.1622 27.5754ZM77.6988 31.15H75.9496L75.9893 30.3184C75.4557 30.9756 74.7434 31.288 73.777 31.288C72.6324 31.288 71.8487 30.3943 71.8487 29.0965C71.8487 27.1439 73.2124 26.0046 75.5551 26.0046C75.7943 26.0046 76.1008 26.0261 76.4145 26.0663C76.4799 25.8019 76.4971 25.6886 76.4971 25.5463C76.4971 25.0146 76.1297 24.8165 75.1434 24.8165C74.1107 24.8048 73.2598 25.0625 72.9086 25.1776C72.9307 25.0444 73.2021 23.3728 73.2021 23.3728C74.2542 23.0645 74.9475 22.9485 75.7277 22.9485C77.5413 22.9485 78.5014 23.7624 78.4996 25.3006C78.5032 25.7128 78.435 26.2215 78.3285 26.89C78.1461 28.0526 77.7521 30.5429 77.6988 31.15Z" fill="black"/>
<path d="M53.823 31.0282C53.2452 31.21 52.7948 31.288 52.3063 31.288C51.2271 31.288 50.6381 30.6678 50.6381 29.5258C50.6227 29.1714 50.7933 28.2389 50.9275 27.3876C51.0493 26.6383 51.8428 21.9136 51.8428 21.9136H53.9413L53.6961 23.1278H54.9636L54.6774 25.0557H53.4054C53.1616 26.5814 52.8145 28.4818 52.8105 28.7337C52.8105 29.1471 53.0312 29.3276 53.5332 29.3276C53.7738 29.3276 53.9601 29.3032 54.1024 29.2518L53.823 31.0282Z" fill="black"/>
<path d="M60.2571 30.9631C59.5363 31.1835 58.8407 31.29 58.1036 31.2881C55.7545 31.2858 54.53 30.059 54.53 27.7095C54.53 24.9673 56.0877 22.9487 58.2024 22.9487C59.9325 22.9487 61.0375 24.079 61.0375 25.8516C61.0375 26.4398 60.9617 27.0139 60.7788 27.8246H56.6C56.4586 28.9882 57.2034 29.4731 58.424 29.4731C59.1752 29.4731 59.8527 29.3183 60.6061 28.9679L60.2571 30.9631ZM59.0776 26.2073C59.0893 26.0402 59.3002 24.7754 58.1012 24.7754C57.4328 24.7754 56.9547 25.285 56.7601 26.2073H59.0776Z" fill="black"/>
<path d="M45.7067 25.6638C45.7067 26.6785 46.1987 27.3783 47.3145 27.9037C48.1695 28.3054 48.3017 28.4247 48.3017 28.7888C48.3017 29.2889 47.9248 29.5147 47.0893 29.5147C46.4596 29.5147 45.8737 29.4163 45.198 29.1982C45.198 29.1982 44.9204 30.9663 44.9077 31.0508C45.3876 31.1555 45.8155 31.2525 47.1046 31.2881C49.3323 31.2881 50.361 30.44 50.361 28.6069C50.361 27.5046 49.9302 26.8577 48.8728 26.3715C47.9876 25.9653 47.8861 25.8746 47.8861 25.5C47.8861 25.0662 48.2368 24.845 48.9193 24.845C49.3337 24.845 49.8997 24.8892 50.436 24.9655L50.7366 23.1048C50.1899 23.0182 49.3612 22.9486 48.8787 22.9486C46.5169 22.9487 45.6994 24.1823 45.7067 25.6638Z" fill="black"/>
<path d="M70.5244 23.1596C71.1107 23.1596 71.6574 23.3135 72.4107 23.6927L72.7561 21.5517C72.4469 21.4302 71.3581 20.7175 70.4359 20.7175C69.0231 20.7175 67.8287 21.4185 66.9887 22.5754C65.7636 22.1696 65.26 22.9898 64.6425 23.8069L64.094 23.9346C64.1354 23.6656 64.1729 23.3983 64.1603 23.1279H62.2215C61.9565 25.6106 61.4871 28.1251 61.1197 30.6111L61.0239 31.1501H63.136C63.4885 28.8596 63.6816 27.3931 63.7991 26.4006L64.5944 25.9581C64.7132 25.5164 65.085 25.3669 65.8312 25.3849C65.7338 25.9085 65.6814 26.4592 65.6814 27.0299C65.6814 29.6543 67.0973 31.2882 69.3701 31.2882C69.9555 31.2882 70.4579 31.2111 71.2357 31.0003L71.6072 28.7514C70.9076 29.0959 70.3334 29.258 69.8134 29.258C68.5861 29.258 67.8435 28.352 67.8435 26.8547C67.8436 24.6825 68.9482 23.1596 70.5244 23.1596Z" fill="black"/>
<path d="M38.3142 30.5641H36.2027L37.4129 22.9821L34.7126 30.5641H33.2736L33.0957 23.0254L31.8246 30.5641H29.8485L31.4992 20.7013H34.5348L34.6201 26.8071L36.6681 20.7013H39.947L38.3142 30.5641Z" fill="white"/>
<path d="M88.3981 21.2858L87.93 24.136C87.3527 23.3762 86.7325 22.8264 85.9137 22.8264C84.8485 22.8264 83.8789 23.6341 83.2442 24.8225C82.3604 24.6392 81.4463 24.3282 81.4463 24.3282L81.4458 24.3354C81.5171 23.6709 81.5456 23.2656 81.5392 23.1279H79.6C79.3359 25.6106 78.8665 28.1251 78.4996 30.6111L78.403 31.1501H80.5146C80.7998 29.2981 81.0182 27.7602 81.179 26.5404C81.9003 25.8887 82.2615 25.3199 82.9904 25.3579C82.6677 26.1383 82.4786 27.0375 82.4786 27.9597C82.4786 29.9653 83.4932 31.2882 85.028 31.2882C85.8017 31.2882 86.3953 31.0215 86.9744 30.4031L86.8755 31.1488H88.8725L90.4804 21.2859H88.3981V21.2858ZM85.7579 29.2961C85.0394 29.2961 84.6764 28.7644 84.6764 27.7149C84.6764 26.1382 85.3558 25.0201 86.3136 25.0201C87.039 25.0201 87.4317 25.573 87.4317 26.5919C87.4317 28.1821 86.7415 29.2961 85.7579 29.2961Z" fill="black"/>
<path d="M43.5125 26.9909C43.2913 26.9653 43.1933 26.9585 43.0416 26.9585C41.845 26.9585 41.2396 27.3688 41.2396 28.179C41.2396 28.6778 41.5353 28.9966 41.9957 28.9966C42.8566 28.9965 43.4764 28.1777 43.5125 26.9909ZM45.0484 30.5642H43.2993L43.339 29.734C42.8059 30.3899 42.0932 30.7036 41.1268 30.7036C39.982 30.7036 39.1979 29.8098 39.1979 28.5121C39.1979 26.5585 40.562 25.4201 42.9047 25.4201C43.1439 25.4201 43.4509 25.4417 43.7647 25.4819C43.8301 25.2175 43.8473 25.1042 43.8473 24.9611C43.8473 24.4293 43.4799 24.2321 42.4936 24.2321C41.4604 24.2204 40.609 24.4781 40.2588 24.5919C40.2809 24.4592 40.5513 22.7895 40.5513 22.7895C41.603 22.4799 42.2976 22.3639 43.0776 22.3639C44.8908 22.3639 45.8514 23.1782 45.8497 24.7151C45.8528 25.1291 45.7842 25.6374 45.6781 26.3049C45.4953 27.4667 45.1018 29.9584 45.0484 30.5642Z" fill="white"/>
<path d="M73.3641 20.9667L73.0184 23.1081C72.2654 22.7294 71.7184 22.5751 71.1325 22.5751C69.5562 22.5751 68.4512 24.098 68.4512 26.27C68.4512 27.7673 69.1942 28.6729 70.4212 28.6729C70.9412 28.6729 71.5149 28.5112 72.2145 28.1664L71.8439 30.4143C71.0657 30.6264 70.5639 30.7037 69.9779 30.7037C67.7055 30.7037 66.2891 29.0696 66.2891 26.4452C66.2891 22.9189 68.2454 20.4544 71.0436 20.4544C71.9653 20.4544 73.0544 20.8452 73.3641 20.9667Z" fill="white"/>
<path d="M76.7704 26.9909C76.5491 26.9653 76.4516 26.9585 76.2994 26.9585C75.1033 26.9585 74.4975 27.3688 74.4975 28.179C74.4975 28.6778 74.7932 28.9966 75.254 28.9966C76.114 28.9965 76.7342 28.1777 76.7704 26.9909ZM78.3063 30.5642H76.5567L76.5969 29.734C76.0634 30.3899 75.3511 30.7036 74.3846 30.7036C73.2403 30.7036 72.4559 29.8098 72.4559 28.5121C72.4559 26.5585 73.8204 25.4201 76.1622 25.4201C76.4019 25.4201 76.7084 25.4417 77.0226 25.4819C77.0876 25.2175 77.1051 25.1042 77.1051 24.9611C77.1051 24.4293 76.7376 24.2321 75.7515 24.2321C74.7187 24.2204 73.8669 24.4781 73.5166 24.5919C73.5387 24.4592 73.8095 22.7895 73.8095 22.7895C74.8613 22.4799 75.5555 22.3639 76.3355 22.3639C78.1491 22.3639 79.1093 23.1782 79.107 24.7151C79.1106 25.1291 79.0424 25.6374 78.9359 26.3049C78.7536 27.4667 78.3592 29.9584 78.3063 30.5642Z" fill="white"/>
<path d="M54.4306 30.4427C53.8523 30.6246 53.4019 30.7036 52.914 30.7036C51.8347 30.7036 51.2457 30.0834 51.2457 28.9413C51.2308 28.5861 51.4015 27.6543 51.5355 26.8032C51.6569 26.0528 52.4504 21.3286 52.4504 21.3286H54.5485L54.3038 22.5433H55.3807L55.0941 24.4703H54.0134C53.7697 25.9969 53.4216 27.8959 53.418 28.1482C53.418 28.5631 53.6391 28.7422 54.1407 28.7422C54.3813 28.7422 54.5673 28.7188 54.7099 28.6674L54.4306 30.4427Z" fill="white"/>
<path d="M60.8647 30.3786C60.1442 30.5988 59.4478 30.7049 58.7111 30.7036C56.362 30.7013 55.1375 29.4744 55.1375 27.125C55.1375 24.3819 56.6952 22.3637 58.8099 22.3637C60.5401 22.3637 61.6451 23.4935 61.6451 25.2671C61.6451 25.8558 61.5693 26.4298 61.3869 27.2401H57.208C57.0666 28.4038 57.8114 28.8891 59.032 28.8891C59.7827 28.8891 60.4607 28.7337 61.2136 28.3825L60.8647 30.3786ZM59.6848 25.6214C59.6974 25.4548 59.9079 24.1896 58.7084 24.1896C58.0403 24.1896 57.5623 24.7006 57.3678 25.6214H59.6848Z" fill="white"/>
<path d="M46.3142 25.0792C46.3142 26.0939 46.8062 26.7927 47.9221 27.319C48.777 27.7208 48.9092 27.8404 48.9092 28.2043C48.9092 28.7044 48.5319 28.93 47.6972 28.93C47.0671 28.93 46.4811 28.8317 45.8049 28.6136C45.8049 28.6136 45.5282 30.3817 45.5155 30.4662C45.9945 30.571 46.4228 30.6666 47.712 30.7036C49.94 30.7036 50.9684 29.8554 50.9684 28.0227C50.9684 26.9199 50.5382 26.2732 49.4802 25.7871C48.5955 25.3798 48.493 25.2905 48.493 24.9154C48.493 24.4821 48.8446 24.259 49.5267 24.259C49.9406 24.259 50.5067 24.3046 51.0438 24.3809L51.344 22.5198C50.7978 22.4332 49.969 22.3637 49.4865 22.3637C47.1244 22.3637 46.3074 23.5965 46.3142 25.0792Z" fill="white"/>
<path d="M89.48 30.5641H87.4826L87.5819 29.8174C87.0028 30.4367 86.4092 30.7036 85.6355 30.7036C84.1007 30.7036 83.0865 29.3805 83.0865 27.375C83.0865 24.7068 84.6596 22.4576 86.5216 22.4576C87.3404 22.4576 87.9601 22.792 88.537 23.5513L89.0055 20.7013H91.0878L89.48 30.5641ZM86.3659 28.7107C87.349 28.7107 88.0396 27.5967 88.0396 26.0074C88.0396 24.9886 87.6465 24.4356 86.9211 24.4356C85.9638 24.4356 85.2835 25.5532 85.2835 27.1304C85.2835 28.1798 85.6473 28.7107 86.3659 28.7107Z" fill="white"/>
<path d="M80.208 22.5434C79.9436 25.026 79.4741 27.5408 79.1071 30.0252L79.0105 30.5642H81.122C81.8773 25.6595 82.0601 24.7016 83.244 24.8216C83.4328 23.8177 83.7839 22.9384 84.0457 22.4947C83.1614 22.3105 82.6676 22.8103 82.0212 23.7595C82.0722 23.3491 82.1656 22.9506 82.1471 22.5435H80.208" fill="white"/>
<path d="M62.8292 22.5434C62.5642 25.026 62.0948 27.5408 61.7277 30.0252L61.6315 30.5642H63.744C64.4984 25.6595 64.6807 24.7016 65.8642 24.8216C66.0538 23.8177 66.4049 22.9384 66.6658 22.4947C65.7824 22.3105 65.2881 22.8103 64.6422 23.7595C64.6933 23.3491 64.7858 22.9506 64.7681 22.5435H62.8292" fill="white"/>
<path d="M90.4073 29.9361C90.4073 29.5882 90.6885 29.3079 91.0352 29.3079C91.3823 29.3079 91.6631 29.5882 91.6631 29.9361C91.6631 30.2824 91.3823 30.5642 91.0352 30.5642C90.6884 30.5642 90.4073 30.2825 90.4073 29.9361ZM91.0352 30.4134C91.2993 30.4134 91.5123 30.1994 91.5123 29.9363C91.5123 29.6727 91.2992 29.4587 91.0352 29.4587C90.7715 29.4587 90.5576 29.6728 90.5576 29.9363C90.5575 30.1994 90.7715 30.4134 91.0352 30.4134ZM90.9502 30.2107H90.8215V29.6601H91.0548C91.1031 29.6601 91.1532 29.661 91.1952 29.6876C91.2403 29.7183 91.266 29.7706 91.266 29.8256C91.266 29.8879 91.2295 29.9461 91.1698 29.9683L91.2719 30.2106H91.1288L91.0444 29.993H90.9501L90.9502 30.2107ZM90.9502 29.8988H91.021C91.0476 29.8988 91.0765 29.9007 91.0999 29.8879C91.1212 29.8744 91.132 29.8487 91.132 29.8242C91.132 29.8039 91.1194 29.7796 91.1009 29.7675C91.0788 29.7549 91.0422 29.7585 91.0183 29.7585H90.9501L90.9502 29.8988Z" fill="white"/>
</svg>
