<svg width="120" height="50" viewBox="0 0 120 50" fill="none" xmlns="http://www.w3.org/2000/svg">
<g clip-path="url(#clip0_3_68)">
<path d="M21.0003 9.87596C21.0003 7.23837 23.1204 5.09819 25.7384 5.09819H95.2513C97.8671 5.09819 99.9894 7.23837 99.9894 9.87596V40.098C99.9894 42.7356 97.8671 44.8736 95.2513 44.8736H25.7384C23.1204 44.8736 21.0003 42.7356 21.0003 40.098V9.87596Z" fill="white"/>
<path d="M21.0549 9.39379C21.0549 6.96782 23.0069 5 25.4131 5H95.6443C98.0505 5 100 6.96782 100 9.39379V9.53342H21.0549V9.39379Z" fill="#FBB110"/>
<path d="M100 40.4973V40.6063C100 43.0323 98.0505 45.0001 95.6443 45.0001H25.4131C23.0069 45.0001 21.0549 43.0323 21.0549 40.6063V40.4973H100Z" fill="#FBB110"/>
<path d="M75.6918 24.9532C75.6918 31.0945 80.6286 36.0729 86.7205 36.0729C92.8102 36.0729 97.7492 31.0945 97.7492 24.9532C97.7492 18.8097 92.8102 13.8312 86.7205 13.8312C80.6286 13.8312 75.6918 18.8097 75.6918 24.9532ZM23.1095 24.9532C23.1095 31.0945 28.0485 36.0729 34.1404 36.0729C40.2301 36.0729 45.1691 31.0945 45.1691 24.9532C45.1691 18.8097 40.2301 13.8312 34.1404 13.8312C28.0485 13.8312 23.1095 18.8097 23.1095 24.9532ZM100 38.392H45.6211C46.6014 37.6982 47.5141 36.7492 48.5098 35.4686L54.0492 28.3412L56.4685 31.4239L59.1607 27.8133L56.807 24.7917L62.4447 17.5356C64.2351 15.234 60.8114 12.5288 59.021 14.8304L54.0383 21.2444L48.9727 14.7453C47.18 12.4503 43.7629 15.162 45.5555 17.4593L51.2806 24.7939L45.0861 32.7634C42.8852 35.5951 40.6886 38.1913 36.3282 38.392H21.0549V11.6387H75.1481C74.2179 12.3237 73.3402 13.2422 72.3882 14.4683L66.8509 21.5935L64.4294 18.513L61.7394 22.1236L64.0932 25.143L58.4533 32.3991C56.665 34.7007 60.0887 37.4059 61.877 35.1043L66.8618 28.6925L71.9275 35.1894C73.7201 37.4866 77.1372 34.7749 75.3446 32.4776L69.6195 25.1408L75.814 17.1735C77.8359 14.5686 79.8556 12.1645 83.5544 11.6387H100V38.392ZM80.1177 24.9532C80.1177 21.275 83.0741 18.2948 86.7205 18.2948C90.3669 18.2948 93.3211 21.275 93.3211 24.9532C93.3211 28.6292 90.3669 31.6093 86.7205 31.6093C83.0741 31.6093 80.1177 28.6292 80.1177 24.9532ZM27.5376 24.9532C27.5376 21.275 30.494 18.2948 34.1404 18.2948C37.7846 18.2948 40.741 21.275 40.741 24.9532C40.741 28.6292 37.7846 31.6093 34.1404 31.6093C30.494 31.6093 27.5376 28.6292 27.5376 24.9532Z" fill="#E70020"/>
</g>
<defs>
<clipPath id="clip0_3_68">
<rect width="79" height="40" fill="white" transform="translate(21 5)"/>
</clipPath>
</defs>
</svg>
