<svg width="120" height="50" viewBox="0 0 120 50" fill="none" xmlns="http://www.w3.org/2000/svg">
<path d="M19.3196 13.1981C20.2626 13.1945 21.1312 13.2865 21.9253 13.4669C22.7194 13.6473 23.4036 13.9479 23.9815 14.3652C24.5593 14.7826 25.0096 15.3379 25.3322 16.0382C25.6583 16.735 25.8214 17.598 25.8214 18.6272C25.8249 19.6564 25.6299 20.576 25.24 21.3895C24.85 22.203 24.3182 22.8892 23.6482 23.448C22.9782 24.0068 22.2054 24.4383 21.3332 24.7354C20.4611 25.0325 19.5359 25.1846 18.5574 25.1881L13.4772 25.1988L12.0875 31.8906L8 31.8976L11.8287 13.2122L19.3196 13.1981ZM18.3553 21.9943C19.4011 21.9908 20.2272 21.7255 20.8263 21.1914C21.4254 20.6574 21.7268 19.8297 21.7232 18.7156C21.7232 18.2452 21.6381 17.8562 21.4715 17.552C21.3049 17.2478 21.0815 17.0108 20.8015 16.8481C20.5214 16.6819 20.213 16.5652 19.8727 16.498C19.5323 16.4273 19.1778 16.3954 18.8127 16.3954L15.303 16.4025L14.165 22.0085L18.3553 21.9943Z" fill="#00609C"/>
<path d="M26.4489 20.3426C26.8495 19.7767 27.3352 19.3204 27.9059 18.9738C28.4802 18.6272 29.1219 18.3761 29.8345 18.2275C30.5471 18.079 31.2844 18.0047 32.0502 18.0012C32.66 18.0012 33.2945 18.0401 33.9539 18.125C34.6133 18.2098 35.2231 18.3761 35.7761 18.6272C36.3327 18.8783 36.7865 19.232 37.1445 19.6883C37.5026 20.1445 37.6728 20.7564 37.655 21.5168C37.655 22.157 37.5629 22.9104 37.375 23.7804L36.1909 29.1919C36.1235 29.4359 36.0739 29.733 36.0491 30.0903C36.0243 30.444 36.0136 30.7517 36.0136 31.0134C36.0136 31.2362 36.0562 31.498 36.1448 31.7915L32.4366 31.7986L32.4331 30.4722C31.9297 31.0488 31.3128 31.4697 30.5825 31.742C29.8522 32.0143 29.0971 32.1487 28.3136 32.1523C27.5833 32.1558 26.9417 32.0603 26.3957 31.8729C25.8462 31.6819 25.3889 31.4272 25.0237 31.1089C24.6586 30.7906 24.3856 30.4157 24.2119 29.9912C24.0382 29.5668 23.9496 29.1212 23.9496 28.6543C23.946 27.3527 24.3927 26.3129 25.2861 25.5312C26.1794 24.7496 27.4451 24.2615 29.0829 24.0669C29.9515 23.9608 30.7101 23.8795 31.3553 23.8264C31.997 23.7734 32.5323 23.6885 32.9613 23.5753C33.3867 23.4621 33.7058 23.2959 33.9114 23.0801C34.1205 22.8644 34.2234 22.539 34.2234 22.104C34.2234 21.7573 34.1418 21.4815 33.9858 21.2728C33.8298 21.0676 33.6349 20.9014 33.4009 20.7812C33.1669 20.6609 32.9152 20.576 32.6422 20.5371C32.3728 20.4947 32.1175 20.4734 31.8729 20.4734C31.2135 20.477 30.6215 20.6361 30.1004 20.958C29.5792 21.2799 29.2602 21.7821 29.1396 22.4576L25.6725 22.4683C25.7895 21.6159 26.0483 20.9085 26.4489 20.3426ZM31.9757 25.8601C31.4369 25.9238 30.898 25.9698 30.3556 26.0052C30.0082 26.0405 29.6679 26.0971 29.3382 26.1749C29.0085 26.2527 28.7178 26.373 28.4625 26.5286C28.2108 26.6842 28.0052 26.9 27.8492 27.1688C27.6932 27.4376 27.6152 27.7807 27.6152 28.1945C27.6152 28.6967 27.8208 29.0752 28.2321 29.3228C28.6433 29.5739 29.1184 29.6977 29.6572 29.6977C30.2315 29.6941 30.7137 29.6022 31.1072 29.4218C31.4971 29.2379 31.8268 29.0044 32.0963 28.7179C32.3657 28.4315 32.5784 28.1061 32.7344 27.7418C32.8904 27.3775 33.018 27.0132 33.1244 26.6489L33.4895 25.3473C33.0216 25.6302 32.5146 25.8 31.9757 25.8601Z" fill="#00609C"/>
<path d="M41.9127 34.9252C41.5831 35.2966 41.2179 35.5901 40.8208 35.7988C40.4238 36.0075 39.9665 36.1525 39.4524 36.2303C38.9384 36.3081 38.3357 36.3506 37.6409 36.3506C37.3289 36.3506 37.0063 36.3364 36.6766 36.3011C36.3469 36.2692 36.0172 36.2445 35.6875 36.2268L36.3079 33.1461C36.5525 33.1461 36.7971 33.1709 37.0488 33.224C37.3005 33.277 37.5487 33.3018 37.7933 33.3018C38.2258 33.2982 38.5768 33.2346 38.8356 33.1037C39.0944 32.9728 39.3071 32.8172 39.4737 32.6333C39.6368 32.4529 39.7786 32.2548 39.8885 32.0497C39.9984 31.8446 40.1189 31.6607 40.2394 31.505L37.8075 18.2134L41.6114 18.2028L42.8097 27.8125H42.8593L47.5034 18.1886L51.4137 18.178L42.8735 33.5069C42.5615 34.0799 42.2424 34.5503 41.9127 34.9252Z" fill="#00609C"/>
<path d="M63.7933 17.269C63.1871 16.7031 62.4001 16.4202 61.4287 16.4237C60.4077 16.4272 59.5179 16.6607 58.7592 17.1311C58.0006 17.598 57.3837 18.2028 56.898 18.9384C56.4123 19.6776 56.0543 20.4982 55.8168 21.4037C55.5792 22.3091 55.4658 23.1969 55.4658 24.0599C55.4693 24.6859 55.5509 25.2801 55.714 25.8389C55.877 26.3977 56.1252 26.8929 56.4584 27.3244C56.7917 27.7559 57.2171 28.0955 57.7382 28.3501C58.2558 28.6048 58.8833 28.7286 59.6136 28.7286C60.1596 28.7286 60.6736 28.6295 61.1557 28.4315C61.6414 28.2369 62.0704 27.9752 62.4426 27.6427C62.8149 27.3103 63.1304 26.9247 63.3856 26.4826C63.6409 26.0405 63.8075 25.5843 63.8926 25.1103L67.8986 25.0997C67.4944 26.3695 67.0158 27.4482 66.4663 28.3289C65.9169 29.2096 65.2965 29.9276 64.6087 30.4793C63.9209 31.0311 63.1587 31.4308 62.3185 31.6783C61.4783 31.9259 60.5637 32.0497 59.5781 32.0532C56.9937 32.0603 54.9978 31.3777 53.594 30.0125C52.1865 28.6437 51.4811 26.6666 51.474 24.074C51.4704 22.5991 51.6973 21.2021 52.1511 19.8793C52.6084 18.56 53.2643 17.3928 54.1186 16.3813C54.9766 15.3732 56.0188 14.5704 57.249 13.9726C58.4792 13.3784 59.8618 13.0778 61.3897 13.0743C62.4426 13.0707 63.4211 13.2157 64.3215 13.4987C65.222 13.7816 66.0019 14.2096 66.6578 14.772C67.3136 15.3379 67.8206 16.0382 68.1822 16.8764C68.5402 17.7147 68.714 18.6838 68.6998 19.7838L64.7044 19.7944C64.7009 18.6767 64.396 17.8314 63.7933 17.269Z" fill="#00CD68"/>
<path d="M70.0646 20.24C70.4617 19.6741 70.9474 19.2179 71.5217 18.8712C72.096 18.5246 72.7377 18.2735 73.4503 18.125C74.1628 17.9764 74.9002 17.9021 75.666 17.8986C76.2757 17.8951 76.9103 17.9375 77.5697 18.0224C78.2291 18.1073 78.8389 18.2735 79.3954 18.5246C79.952 18.7757 80.4058 19.1294 80.7639 19.5857C81.1184 20.0455 81.2885 20.6538 81.2744 21.4178C81.2744 22.058 81.1822 22.8113 80.9943 23.6814L79.8102 29.0893C79.7393 29.3334 79.6932 29.6305 79.6684 29.9877C79.6436 30.3449 79.633 30.6526 79.633 30.9108C79.633 31.1337 79.6755 31.3954 79.7641 31.6889L76.0559 31.696L76.0524 30.3697C75.549 30.9427 74.9321 31.3671 74.2018 31.6394C73.4715 31.9118 72.7164 32.0462 71.9329 32.0497C71.2026 32.0497 70.561 31.9577 70.015 31.7703C69.4655 31.5793 69.0082 31.3246 68.6431 31.0063C68.2779 30.688 68.0049 30.3131 67.8312 29.8922C67.6575 29.4678 67.5689 29.0221 67.5689 28.5553C67.5653 27.2537 68.012 26.2138 68.9054 25.4322C69.7988 24.6505 71.0644 24.1624 72.7022 23.9679C73.5708 23.8618 74.3294 23.7805 74.9747 23.7274C75.6163 23.6743 76.1516 23.5895 76.5806 23.4763C77.006 23.3631 77.3215 23.1969 77.5307 22.9811C77.7399 22.7654 77.8427 22.4364 77.8427 22.0049C77.8427 21.6583 77.7647 21.3824 77.6051 21.1738C77.4492 20.9686 77.2506 20.8024 77.0167 20.6821C76.7827 20.5619 76.531 20.4805 76.2615 20.4381C75.9921 20.3956 75.7369 20.3744 75.4922 20.3744C74.8329 20.378 74.2408 20.5371 73.7197 20.859C73.1985 21.1808 72.8795 21.6831 72.759 22.3586L69.2918 22.3692C69.4053 21.5133 69.664 20.8059 70.0646 20.24ZM75.5915 25.7576C75.0526 25.8212 74.5138 25.8672 73.9714 25.9026C73.624 25.938 73.2836 25.9945 72.9539 26.0724C72.6242 26.1502 72.3335 26.2704 72.0783 26.426C71.8266 26.5817 71.621 26.7974 71.465 27.0662C71.309 27.335 71.231 27.6781 71.231 28.0919C71.231 28.5942 71.4366 28.9726 71.8478 29.2202C72.2591 29.4713 72.7341 29.5951 73.273 29.5916C73.8473 29.5916 74.333 29.4996 74.723 29.3157C75.1129 29.1318 75.4426 28.8983 75.712 28.6118C75.9815 28.3254 76.1942 28 76.3502 27.6357C76.5062 27.2714 76.6338 26.9071 76.7401 26.5428L77.1017 25.2412C76.6373 25.5241 76.1304 25.6974 75.5915 25.7576Z" fill="#00CD68"/>
<path d="M89.726 20.813C89.4034 20.4947 88.8787 20.3355 88.1484 20.3355C87.4854 20.3391 86.943 20.4381 86.5212 20.6397C86.0957 20.8413 85.883 21.1844 85.883 21.6689C85.883 21.9625 86.0107 22.2136 86.2624 22.4223C86.5141 22.631 86.9537 22.8255 87.5776 23.0165L89.4282 23.6107C89.9316 23.7663 90.396 23.9467 90.825 24.1518C91.2504 24.3605 91.6262 24.6152 91.9488 24.9158C92.2714 25.22 92.5231 25.5772 92.7074 25.9946C92.8918 26.4119 92.9839 26.8929 92.9839 27.4482C92.9875 28.2794 92.7996 28.9868 92.4274 29.5668C92.0551 30.1469 91.5659 30.6208 90.9597 30.9887C90.3499 31.353 89.6657 31.6147 88.8999 31.7738C88.1342 31.9295 87.3614 32.0108 86.5779 32.0108C85.9185 32.0143 85.2485 31.9436 84.5678 31.8092C83.8907 31.6713 83.2774 31.4449 82.7279 31.1266C82.1784 30.8083 81.7317 30.3838 81.3807 29.8568C81.0333 29.3298 80.856 28.6684 80.856 27.8726V27.328L84.27 27.3209V27.7595C84.27 28.0707 84.348 28.336 84.5075 28.5623C84.6635 28.7852 84.8691 28.9726 85.1208 29.1176C85.3725 29.2626 85.6597 29.3758 85.9823 29.4501C86.3049 29.5279 86.624 29.5668 86.9359 29.5633C87.2125 29.5633 87.4925 29.535 87.7691 29.4819C88.0456 29.4289 88.2973 29.3369 88.5242 29.2061C88.7475 29.0752 88.9319 28.9125 89.0701 28.7109C89.2084 28.5128 89.2757 28.2546 89.2757 27.9434C89.2757 27.4765 89.1517 27.1476 88.907 26.9566C88.6624 26.7656 88.3434 26.6029 87.9428 26.465L85.0996 25.5631C84.6316 25.4074 84.2168 25.2447 83.8623 25.0714C83.5043 24.8981 83.2029 24.6824 82.9477 24.4242C82.696 24.166 82.501 23.8547 82.3734 23.4904C82.2422 23.1261 82.1748 22.6769 82.1748 22.1393C82.1713 21.3435 82.3592 20.6751 82.7314 20.1375C83.1037 19.5999 83.5858 19.1613 84.1778 18.8217C84.7699 18.4822 85.4151 18.2381 86.1206 18.0896C86.826 17.941 87.4961 17.8632 88.1413 17.8632C88.868 17.8632 89.5735 17.9198 90.2542 18.0401C90.9313 18.1603 91.5269 18.3796 92.0409 18.6979C92.555 19.0163 92.9591 19.4513 93.2569 20.0066C93.5547 20.5583 93.693 21.2693 93.6788 22.1358L90.2365 22.1429C90.2223 21.5805 90.0486 21.1349 89.726 20.813Z" fill="#00CD68"/>
<path d="M100.485 13L99.1099 19.7236H99.1631C99.3014 19.5326 99.5034 19.3204 99.7622 19.0941C100.025 18.8677 100.34 18.6555 100.705 18.461C101.07 18.27 101.499 18.1037 101.989 17.9729C102.478 17.842 103.027 17.7748 103.641 17.7713C106.282 17.7642 107.604 18.9738 107.611 21.3931C107.611 21.531 107.593 21.7114 107.562 21.9307C107.526 22.1464 107.487 22.3692 107.445 22.5956C107.402 22.822 107.356 23.0342 107.313 23.2358C107.271 23.4374 107.239 23.6001 107.221 23.7203L105.562 31.6394L101.836 31.65L103.47 23.7345C103.502 23.5258 103.552 23.2464 103.612 22.8998C103.673 22.5532 103.704 22.2808 103.704 22.0898C103.704 21.6901 103.513 21.3577 103.137 21.0995C102.761 20.8413 102.354 20.7104 101.918 20.7104C101.358 20.7104 100.865 20.8236 100.436 21.0394C100.007 21.2586 99.6417 21.5416 99.3368 21.8918C99.0319 22.2419 98.7802 22.6416 98.5782 23.0943C98.3761 23.547 98.2272 24.0068 98.1208 24.4808L96.6177 31.6642L92.9201 31.6713L96.756 13.0071L100.485 13Z" fill="#00CD68"/>
<path d="M112 29.5342C112 30.7191 111.036 31.6811 109.848 31.6811C108.66 31.6811 107.696 30.7191 107.696 29.5342C107.696 28.3494 108.66 27.3873 109.848 27.3873C111.036 27.3873 112 28.3494 112 29.5342Z" fill="#00CD68"/>
<path d="M111.638 29.5342C111.638 30.521 110.837 31.3203 109.848 31.3203C108.859 31.3203 108.058 30.521 108.058 29.5342C108.058 28.5474 108.859 27.7481 109.848 27.7481C110.837 27.7445 111.638 28.5474 111.638 29.5342Z" fill="white"/>
<path d="M108.911 29.5655V28.4125L109.422 28.416C109.929 28.4196 109.968 28.4196 110.095 28.4337C110.29 28.4585 110.407 28.508 110.514 28.6141C110.567 28.6672 110.602 28.7202 110.634 28.7874C110.677 28.8794 110.695 28.9466 110.695 29.0421C110.695 29.2048 110.634 29.3498 110.521 29.4736C110.4 29.6009 110.269 29.661 110.064 29.6893L110.035 29.6929L110.088 29.7176C110.181 29.7636 110.216 29.7954 110.308 29.898C110.393 29.997 110.475 30.1138 110.613 30.3366C110.663 30.4179 110.734 30.5311 110.773 30.5912C110.808 30.6514 110.843 30.7044 110.847 30.7115L110.854 30.7221H110.627H110.4L110.368 30.669C110.351 30.6372 110.329 30.6018 110.322 30.5842C110.315 30.5665 110.298 30.5382 110.283 30.5134C110.124 30.2269 110.099 30.1845 110.032 30.0855C109.925 29.9263 109.837 29.8308 109.752 29.7884C109.681 29.753 109.61 29.7424 109.425 29.7424H109.287V30.2305V30.7186H109.103H108.918V29.5655H108.911Z" fill="#00CD68"/>
<path d="M109.918 29.4134C110.017 29.3993 110.067 29.3851 110.127 29.3569C110.152 29.3462 110.17 29.3321 110.198 29.3038C110.262 29.2401 110.29 29.1765 110.294 29.0845C110.298 29.0385 110.294 29.0244 110.287 28.9926C110.262 28.8971 110.205 28.8263 110.12 28.7839C110.067 28.7556 110.025 28.745 109.947 28.7344C109.904 28.7273 109.833 28.7273 109.588 28.7237L109.284 28.7202V29.0704V29.4205L109.574 29.417C109.801 29.4205 109.876 29.417 109.918 29.4134Z" fill="white"/>
</svg>
