<svg width="120" height="50" viewBox="0 0 120 50" fill="none" xmlns="http://www.w3.org/2000/svg">
<g clip-path="url(#clip0_3_93)">
<path d="M21.7493 24.2837C21.7033 23.636 21.5344 22.9807 21.1812 22.4169L18.2102 17.2582C17.9953 16.8696 17.8187 16.4353 17.7266 16.001L17.5961 16.2143C16.8514 17.4716 16.8514 19.0718 17.5961 20.329L19.999 24.4438C20.7436 25.701 20.7436 27.3012 19.999 28.5585L19.8685 28.7718C19.784 28.3375 19.6074 27.9032 19.3848 27.5145L17.2046 23.7427L15.8073 21.3196C15.5924 20.931 15.4158 20.4967 15.3237 20.0623L15.1932 20.2757C14.4485 21.533 14.4485 23.095 15.1932 24.3904L17.5961 28.5051C18.3407 29.7624 18.3407 31.3626 17.5961 32.6198L17.4656 32.8332C17.3811 32.3989 17.2046 31.9645 16.9819 31.5759L13.9725 26.4173C13.581 25.7239 13.4044 24.9467 13.4044 24.1618C10.2185 24.9848 7.99218 26.7602 7.99218 28.8023C7.99218 31.6597 12.2683 33.9609 17.55 33.9609C22.8318 33.9609 27.1078 31.6674 27.1078 28.8023C27.1539 26.8516 24.966 25.0762 21.734 24.2533L21.7493 24.2837ZM30.7851 33.077C30.8312 32.3379 30.9156 31.8655 31.1383 31.2559C32.1439 31.7359 33.449 31.9493 34.4163 31.9493C36.0746 31.9493 37.0342 31.4312 37.0342 30.3491C37.0342 29.3128 36.3356 28.8328 34.6773 28.0937L33.7638 27.7508C32.0595 27.0116 30.9233 26.0592 30.9233 24.1999C30.9233 22.1654 32.3666 20.8624 35.2454 20.8624C36.4277 20.8624 37.5178 21.0377 38.5235 21.3806C38.4774 22.074 38.3469 22.6378 38.1704 23.156C37.2107 22.8055 36.0285 22.6378 35.1994 22.6378C33.6256 22.6378 32.927 23.2474 32.927 24.1999C32.927 25.1067 33.6256 25.6705 34.8923 26.1963L35.8519 26.5849C38.1243 27.5374 39.0839 28.5813 39.0839 30.311C39.0839 32.3455 37.5102 33.7781 34.4547 33.7781C33.0114 33.7781 31.7908 33.5647 30.7851 33.0847V33.077ZM48.7262 24.5428V33.4733H46.8914L46.807 32.3913C46.2849 33.1685 45.5403 33.6942 44.2736 33.6942C41.9167 33.6942 40.2969 31.9645 40.2969 28.9699C40.2969 25.8534 42.0012 24.0323 45.3176 24.0323C46.6304 24.078 47.7205 24.2075 48.7262 24.5504V24.5428ZM46.7609 31.4312V25.8382C46.3694 25.7544 45.8857 25.7544 45.3176 25.7544C43.2679 25.7544 42.3083 27.0116 42.3083 29.008C42.3083 30.8292 43.0529 32.1246 44.7956 32.1246C45.6247 32.0788 46.2389 31.8198 46.7609 31.4312ZM58.8521 27.4841V33.4656H56.8868V27.8346C56.8868 26.4021 56.4032 25.7544 54.4456 25.7544C53.9619 25.7544 53.4399 25.8001 52.8718 25.8839V33.4656H50.9065V24.5352C52.1732 24.2304 53.5704 24.017 54.4839 24.017C57.8004 24.0628 58.8521 25.32 58.8521 27.4841ZM64.3565 32.0331C64.9246 32.0331 65.4927 31.9493 65.8843 31.774C65.8382 32.2922 65.7537 32.9018 65.6693 33.4199C65.1473 33.6333 64.5331 33.7247 64.0111 33.7247C62.0918 33.7247 60.8712 32.8561 60.8712 30.692V21.2891C61.4853 21.0758 62.2223 20.9843 62.8365 20.9843V24.3676H65.9764C65.9303 24.9771 65.8919 25.541 65.7998 26.0592H62.8288V30.433C62.8288 31.5607 63.3969 32.0331 64.3565 32.0331ZM74.9661 24.5352V33.4656H73.1313L73.0469 32.3836C72.5248 33.1609 71.7802 33.6866 70.5135 33.6866C68.1566 33.6866 66.5368 31.9569 66.5368 28.9623C66.5368 25.8458 68.2411 24.0247 71.5575 24.0247C72.8703 24.0704 73.9144 24.1999 74.9661 24.5428V24.5352ZM72.9547 31.4235V25.8306C72.5632 25.7467 72.0796 25.7467 71.5115 25.7467C69.4617 25.7467 68.5021 27.004 68.5021 29.0004C68.5021 30.8216 69.2468 32.1169 70.9894 32.1169C71.8186 32.0712 72.4711 31.8121 72.9547 31.4235ZM85.092 27.4765V33.458H83.0807V27.827C83.0807 26.3944 82.597 25.7467 80.6394 25.7467C80.1557 25.7467 79.6337 25.7925 79.0656 25.8763V33.458H77.1003V24.5276C78.367 24.2228 79.7642 24.0094 80.6778 24.0094C83.9942 24.0551 85.0844 25.3124 85.0844 27.4765H85.092ZM95.0875 20.9767V33.458H93.2527L93.1682 32.3303C92.6462 33.1532 91.9015 33.6714 90.5888 33.6714C88.2319 33.6714 86.6121 31.9417 86.6121 28.9471C86.6121 25.8306 88.3164 24.0094 91.6328 24.0094C92.1549 24.0094 92.6385 24.0551 93.1145 24.139V21.1901C93.7286 21.0148 94.4272 20.9767 95.0798 20.9767H95.0875ZM93.1222 31.4235V25.922C92.6001 25.8382 92.0781 25.7467 91.5484 25.7467C89.5831 25.7467 88.6695 26.9583 88.6695 29.0004C88.6695 30.8216 89.4142 32.1169 91.1569 32.1169C91.9399 32.0712 92.6001 31.8121 93.1222 31.4235ZM105.045 29.6481H98.711C98.972 31.2483 99.8933 31.9874 101.682 31.9874C102.772 31.9874 103.862 31.774 104.822 31.294C104.737 31.8121 104.645 32.5055 104.515 33.0694C103.601 33.458 102.68 33.6333 101.59 33.6333C98.2734 33.6333 96.6996 31.8121 96.6996 28.7794C96.6996 26.1354 97.9203 24.0094 101.068 24.0094C103.908 24.0094 105.129 25.8306 105.129 28.086C105.129 28.6956 105.129 29.1223 105.045 29.6481ZM98.711 28.0022H103.164C103.164 26.5316 102.381 25.6629 101.022 25.6629C99.5785 25.7086 98.8415 26.4859 98.711 28.0022ZM111.984 24.1466C111.984 24.7562 111.9 25.4496 111.808 25.8382C111.324 25.7925 110.894 25.7544 110.326 25.7544C109.843 25.7544 109.367 25.8001 108.883 25.8382V33.4656H106.918V24.5352C107.747 24.2304 109.19 24.017 110.28 24.017C110.848 24.0628 111.547 24.0628 111.984 24.1466Z" fill="#EA1D25"/>
</g>
<defs>
<clipPath id="clip0_3_93">
<rect width="104" height="18" fill="white" transform="translate(8 16)"/>
</clipPath>
</defs>
</svg>
