<svg width="120" height="50" viewBox="0 0 120 50" fill="none" xmlns="http://www.w3.org/2000/svg">
<g clip-path="url(#clip0_3_101)">
<path fill-rule="evenodd" clip-rule="evenodd" d="M30.5841 14.5368C29.2032 14.5368 27.2888 15.1237 25.8982 17.0373C25.6426 17.3865 25.4339 17.8307 25.3113 18.2682C24.8864 19.7591 25.185 21.4001 26.1173 22.657C26.832 23.6242 27.7442 24.3478 28.5494 24.9866C28.9432 25.2986 29.7789 26.089 30.0485 26.424C30.4504 26.927 30.7565 27.2263 31.1197 28.3332C31.3396 29.0047 31.3708 29.8895 31.2631 30.3909C33.7836 27.8355 36.5367 24.5186 36.5367 20.9106C36.5367 16.7654 33.5675 14.5368 30.5841 14.5368Z" fill="#D52B1E"/>
<path fill-rule="evenodd" clip-rule="evenodd" d="M25.8937 28.5516C24.8418 27.1186 23.625 26.2487 22.6207 25.3321C22.1824 24.9331 21.7025 24.639 21.3474 24.2846C19.644 22.5924 18.8477 20.5065 19.2503 17.9384C19.5683 15.9245 20.5682 14.6015 21.7761 13.6298C20.3342 12.5735 18.6234 12 16.6904 12C11.8923 12 7.88088 15.8554 8.0027 20.6097C8.22036 29.1912 18.9688 36.5039 23.3977 38C25.766 36.7877 27.0244 34.5205 27.0244 32.1946C27.0244 30.4986 26.2978 29.1013 25.8937 28.5516Z" fill="#B6BF00"/>
<path fill-rule="evenodd" clip-rule="evenodd" d="M43.8939 28.4238C44.7193 29.0159 46.3491 29.7773 47.5042 29.7773C48.392 29.7773 49.1564 29.4393 49.1564 28.4677C49.1564 27.5168 47.9581 27.1781 46.7421 26.6922C45.3381 26.1425 43.9355 25.2734 43.9355 22.9913C43.9355 19.9501 46.1426 18.341 49.3428 18.341C51.4458 18.341 53.3223 19.4197 54.2925 20.5637L52.188 22.8004C51.2393 21.9788 50.1874 21.3645 49.1757 21.3645C48.3504 21.3645 47.733 21.7025 47.733 22.4639C47.733 23.5002 48.6193 23.7527 50.125 24.3879C51.5684 25 53.0541 25.8885 53.0541 28.0673C53.0541 31.0246 50.7022 32.927 47.3601 32.927C45.0067 32.927 43.027 31.9338 42.244 31.3002L43.8939 28.4238ZM60.716 27.3972C60.8386 26.7234 60.8794 26.1128 60.8794 25.653C60.8794 24.6427 60.5726 24.0335 59.8565 24.0335C58.896 24.0335 58.2616 24.9993 57.954 26.7465C57.8315 27.4165 57.7698 28.1334 57.7698 28.6779C57.7698 29.6035 58.0149 30.3597 58.7727 30.3597C59.774 30.3597 60.3683 29.4549 60.716 27.3972ZM60.4285 21.5123C61.8823 21.5123 64.4392 22.0783 64.4392 25.5683C64.4392 26.0318 64.4184 26.5763 64.3352 27.1446C63.7038 31.2653 61.1662 32.927 58.2616 32.927C55.7255 32.927 54.2925 31.4116 54.2925 28.7225C54.2925 28.2173 54.3125 27.6082 54.4143 27.0191C55.1713 22.6043 58.0766 21.5123 60.4285 21.5123ZM68.9461 32.2926H65.7073L67.1231 23.8025L67.2004 21.8169H69.8004L69.8576 23.2721C70.5759 21.9825 71.5848 21.5115 72.3982 21.5115C72.9628 21.5115 73.563 21.6549 73.9508 21.9201L73.02 24.7653C72.6522 24.5587 72.185 24.3968 71.7021 24.3968C70.8657 24.3968 70.2075 24.9272 70.0329 25.8899L68.9461 32.2934V32.2926ZM73.3171 32.2926L75.0925 22.1467H78.3901L76.6139 32.2926H73.3171ZM77.4177 17.0737C78.4101 17.0737 79.0245 17.8077 79.0245 18.7028C79.0245 19.9174 78.0521 20.8779 76.8041 20.8779C75.7908 20.8779 75.2196 20.213 75.2196 19.2986C75.2196 18.1085 76.1496 17.0737 77.4177 17.0737ZM86.0594 24.1435C85.8276 24.0395 85.4948 23.9749 85.1159 23.9749C83.2098 23.9749 82.5219 26.8609 82.5219 28.591C82.5219 29.5998 82.7507 30.4191 83.755 30.4191C84.4682 30.4191 84.9696 29.9601 85.1783 29.2224L86.0594 24.1435ZM88.4023 30.3374L88.256 32.6128H85.3039V31.6218L85.1991 31.6018C84.4682 32.4657 83.5262 32.927 82.27 32.927C80.0296 32.927 79.0237 31.2667 79.0237 28.9884C79.0237 24.6702 81.412 21.5123 85.7867 21.5123C86.664 21.5123 88.2345 21.7218 89.8049 22.3532L88.4023 30.3374ZM89.8049 32.2926L91.2371 23.9251L91.3559 21.8169H94.1016L94.1417 22.943C94.9172 22.0635 95.952 21.5123 97.2854 21.5123C98.9361 21.5123 99.9308 22.2886 99.9508 24.0477C99.9508 24.3745 99.9107 24.7861 99.8505 25.1716L98.6181 32.2926H95.2946L96.3309 26.1759C96.3903 25.8491 96.4891 25.3766 96.4891 24.9889C96.4891 24.5795 96.3309 24.1301 95.7329 24.1301C94.8764 24.1301 94.3794 24.7861 94.2397 25.6433L93.1069 32.2926H89.8049ZM108.252 24.1435C108.022 24.0395 107.686 23.9749 107.31 23.9749C105.405 23.9749 104.714 26.8609 104.714 28.591C104.714 29.5998 104.944 30.4191 105.95 30.4191C106.66 30.4191 107.164 29.9601 107.373 29.2224L108.252 24.1435ZM110.597 30.3374L110.45 32.6128H107.498V31.6218L107.394 31.6018C106.66 32.4657 105.719 32.927 104.464 32.927C102.224 32.927 101.22 31.2667 101.22 28.9884C101.22 24.6702 103.605 21.5123 107.98 21.5123C108.858 21.5123 110.428 21.7218 112 22.3532L110.597 30.3374Z" fill="#D52B1E"/>
</g>
<defs>
<clipPath id="clip0_3_101">
<rect width="104" height="26" fill="white" transform="translate(8 12)"/>
</clipPath>
</defs>
</svg>
