<svg width="120" height="50" viewBox="0 0 120 50" fill="none" xmlns="http://www.w3.org/2000/svg">
<path d="M44.7373 40.4963L49.997 9.63099H58.4099L53.1463 40.4963H44.7373ZM83.5412 10.2964C81.8748 9.67104 79.2629 9 76.0014 9C67.6881 9 61.8327 13.1863 61.7826 19.186C61.7358 23.6211 65.9632 26.0954 69.1543 27.5717C72.4292 29.085 73.5299 30.0496 73.5141 31.4003C73.4931 33.4694 70.899 34.4142 68.4807 34.4142C65.1137 34.4142 63.3248 33.9464 60.5618 32.7944L59.4773 32.3039L58.2969 39.2133C60.2619 40.0753 63.8954 40.8214 67.6684 40.8602C76.512 40.8602 82.2531 36.7217 82.3184 30.3145C82.3497 26.8032 80.1085 24.1315 75.2546 21.9284C72.3141 20.5005 70.5132 19.5477 70.5323 18.1019C70.5323 16.819 72.0566 15.4471 75.3506 15.4471C78.1013 15.4044 80.0946 16.0043 81.6473 16.6296L82.4011 16.9858L83.5412 10.2964ZM105.191 9.63052H98.6901C96.6763 9.63052 95.169 10.1802 94.2848 12.1901L81.7903 40.4759H90.6247C90.6247 40.4759 92.0688 36.6728 92.3954 35.8376C93.3609 35.8376 101.943 35.8509 103.17 35.8509C103.422 36.9315 104.193 40.4759 104.193 40.4759H112L105.191 9.62957V9.63052ZM94.8765 29.5614C95.5725 27.7831 98.2286 20.9332 98.2286 20.9332C98.1791 21.0153 98.9193 19.1462 99.3439 17.9873L99.9125 20.6484C99.9125 20.6484 101.523 28.0161 101.86 29.561H94.8765V29.5614ZM37.5954 9.63052L29.3589 30.6793L28.4815 26.4019C26.948 21.471 22.1708 16.1287 16.8301 13.4541L24.3615 40.4471L33.2627 40.4371L46.5075 9.6302L37.5954 9.63005" fill="#0E4595"/>
<path d="M21.6735 9.62941H8.10753L8 10.2716C18.5542 12.8265 25.5375 19.0006 28.437 26.42L25.4872 12.2361C24.9781 10.2817 23.5011 9.69831 21.6738 9.6302" fill="#F2AE14"/>
</svg>
