<svg width="120" height="50" viewBox="0 0 120 50" fill="none" xmlns="http://www.w3.org/2000/svg">
<g clip-path="url(#clip0_3_111)">
<path d="M99.3391 21.416C99.9181 21.416 100.395 21.1115 100.459 20.718L101.031 14.1772C101.031 13.5307 100.282 13 99.3409 13C98.4006 13 97.6528 13.5307 97.6528 14.1773L98.2241 20.718C98.2869 21.1113 98.7635 21.416 99.341 21.416H99.3391ZM95.845 23.459C96.1354 22.9523 96.1135 22.3828 95.8074 22.1299L90.4935 18.3586C89.941 18.0349 89.1126 18.4246 88.6425 19.2495C88.1708 20.0733 88.2544 20.9935 88.8054 21.3173L94.6894 24.089C95.0572 24.227 95.5587 23.9615 95.8468 23.4552L95.845 23.459ZM102.836 23.4555C103.126 23.9618 103.625 24.2274 103.993 24.0894L109.877 21.3177C110.432 20.9939 110.511 20.0737 110.043 19.2498C109.571 18.4257 108.741 18.0353 108.19 18.359L102.876 22.1302C102.572 22.3828 102.549 22.9528 102.838 23.4594L102.836 23.4555ZM99.3391 29.5864C99.9181 29.5864 100.395 29.8884 100.459 30.2823L101.031 36.8221C101.031 37.4706 100.282 38.0001 99.3409 38.0001C98.4006 38.0001 97.6528 37.4706 97.6528 36.8221L98.2241 30.2823C98.2869 29.8884 98.7635 29.5864 99.341 29.5864H99.3391ZM102.836 27.543C103.126 27.0352 103.625 26.772 103.993 26.9115L109.877 29.6814C110.432 30.0055 110.511 30.9265 110.043 31.7511C109.571 32.5725 108.741 32.964 108.19 32.6408L102.876 28.8731C102.572 28.6184 102.549 28.0481 102.838 27.5419H102.836M95.845 27.5423C96.1354 28.0481 96.1135 28.6184 95.8074 28.8735L90.4935 32.6411C89.941 32.9644 89.1126 32.5729 88.6425 31.7515C88.1708 30.9269 88.2544 30.0058 88.8054 29.6818L94.6894 26.9119C95.0572 26.7723 95.5587 27.0356 95.8468 27.5434H95.845" fill="#FDBB30"/>
<path d="M65.8206 28.8612C65.8206 29.0619 65.803 29.2689 65.7486 29.4507C65.5233 30.2058 64.7505 30.8444 63.7837 30.8444C62.9775 30.8444 62.3373 30.3811 62.3373 29.4026C62.3373 27.9051 63.9665 27.4915 65.8211 27.5019L65.8206 28.8611V28.8612ZM68.7296 26.2514C68.7296 23.782 67.6866 21.6092 64.1627 21.6092C62.3537 21.6092 60.9181 22.1232 60.1344 22.5813L60.7084 24.5666C61.4245 24.1091 62.566 23.7304 63.6462 23.7304C65.4336 23.7254 65.7264 24.7546 65.7264 25.4132V25.5691C61.83 25.5633 59.3669 26.9282 59.3669 29.7088C59.3669 31.4079 60.6214 32.9993 62.8021 32.9993C64.142 32.9993 65.2643 32.4582 65.936 31.5905H66.0023C66.0023 31.5905 66.4467 33.4742 68.9002 32.7535C68.7721 31.9701 68.73 31.1339 68.73 30.1284L68.7297 26.2514M8.01968 18.2463C8.01968 18.2463 10.5659 28.8018 10.9725 30.5148C11.4468 32.5144 12.3016 33.2505 14.7649 32.7535L16.3547 26.2095C16.7578 24.5833 17.0276 23.4238 17.2874 21.7711H17.3326C17.515 23.4413 17.7737 24.5883 18.1054 26.2149C18.1054 26.2149 18.7522 29.1859 19.0841 30.7459C19.4163 32.3054 20.3409 33.2889 22.7541 32.7535L26.5424 18.2458H23.4846L22.1907 24.5185C21.8429 26.3436 21.5275 27.7714 21.2841 29.4407H21.2409C21.0198 27.7861 20.7382 26.4165 20.3849 24.6379L19.0389 18.2458H15.8524L14.4118 24.4767C14.004 26.3707 13.6217 27.8994 13.3794 29.5131H13.3354C13.0867 27.9935 12.7557 26.0715 12.3974 24.239C12.3974 24.239 11.5421 19.7821 11.2413 18.2458L8.01968 18.2463ZM32.3264 28.8612C32.3264 29.0619 32.3087 29.2689 32.2536 29.4507C32.0287 30.2058 31.2554 30.8444 30.2886 30.8444C29.4824 30.8444 28.843 30.3811 28.843 29.4026C28.843 27.9051 30.4718 27.4915 32.3267 27.5019L32.3264 28.8611V28.8612ZM35.235 26.2514C35.235 23.782 34.1921 21.6092 30.6688 21.6092C28.8594 21.6092 27.4226 22.1232 26.6394 22.5813L27.2126 24.5666C27.9287 24.1091 29.0701 23.7304 30.1507 23.7304C31.9394 23.7254 32.2321 24.7546 32.2321 25.4132V25.5691C28.3341 25.5633 25.8722 26.9282 25.8722 29.7088C25.8722 31.4079 27.126 32.9993 29.3051 32.9993C30.6469 32.9993 31.7685 32.4582 32.4409 31.5905H32.5064C32.5064 31.5905 32.9521 33.4742 35.405 32.7535C35.2767 31.9701 35.235 31.1339 35.235 30.1284V26.2514ZM40.0893 29.6739V18.2463H37.1769V32.754H40.0893V29.6739ZM78.189 18.2463V28.9483C78.189 30.4245 78.4641 31.4576 79.0506 32.0899C79.5645 32.6427 80.409 33.0004 81.4217 33.0004C82.2831 33.0004 83.1299 32.8342 83.5296 32.6842L83.492 30.3823C83.1946 30.4558 82.8532 30.5153 82.3858 30.5153C81.3934 30.5153 81.0616 29.8721 81.0616 28.5475V24.4527H83.5977V21.6765H81.0616V18.2463H78.189ZM70.6716 21.8553V32.754H73.6759V27.1736C73.6759 26.872 73.6939 26.6092 73.7411 26.3688C73.9634 25.1993 74.8469 24.4527 76.116 24.4527C76.4639 24.4527 76.7129 24.4909 76.9827 24.5297V21.6765C76.7563 21.6309 76.6027 21.6095 76.321 21.6095C75.1999 21.6095 73.9243 22.3414 73.389 23.9114H73.3078V21.8553H70.6716ZM42.1286 21.8553V32.754H45.0556V26.363C45.0556 26.0631 45.0905 25.7459 45.1931 25.4709C45.4357 24.8275 46.0276 24.0739 46.9722 24.0739C48.1539 24.0739 48.7057 25.0841 48.7057 26.5421V32.7532H51.6304V26.2843C51.6304 25.9982 51.6691 25.6532 51.7527 25.4009C51.9928 24.6686 52.6304 24.0731 53.5087 24.0731C54.706 24.0731 55.2808 25.0656 55.2808 26.7817V32.7528H58.2075V26.3334C58.2075 22.9485 56.5085 21.6085 54.5904 21.6085C53.7417 21.6085 53.0711 21.8235 52.4646 22.1995C51.9553 22.5169 51.4986 22.9667 51.1001 23.5579H51.0568C50.5943 22.3833 49.506 21.609 48.0879 21.609C46.266 21.609 45.4472 22.5434 44.9506 23.3358H44.907V21.8549H42.1286" fill="#1A75CF"/>
<path d="M111.353 32.2241H111.397C111.456 32.2241 111.494 32.1996 111.494 32.1632C111.494 32.1217 111.458 32.0992 111.404 32.0992C111.385 32.0992 111.366 32.1031 111.353 32.1031V32.2251V32.224L111.353 32.2241ZM111.346 32.5179H111.191V32.005C111.226 31.998 111.308 31.9856 111.414 31.9856C111.528 31.9856 111.58 32.0019 111.617 32.0276C111.649 32.05 111.672 32.0882 111.672 32.1399C111.672 32.1926 111.624 32.2371 111.554 32.2566V32.2632C111.611 32.2787 111.643 32.3209 111.659 32.395C111.675 32.469 111.684 32.4992 111.694 32.5183H111.518C111.503 32.4992 111.494 32.4538 111.483 32.4086C111.473 32.3566 111.449 32.3306 111.397 32.3306H111.346L111.346 32.5179ZM111.411 31.8379C111.187 31.8379 111.019 32.0221 111.019 32.2569C111.019 32.4856 111.188 32.6722 111.417 32.6722C111.647 32.676 111.816 32.4857 111.816 32.2531C111.816 32.0216 111.647 31.8379 111.414 31.8379H111.411ZM111.421 31.6987C111.732 31.6987 111.981 31.9468 111.981 32.253C111.981 32.5628 111.732 32.8113 111.417 32.8113C111.101 32.8113 110.849 32.5625 110.849 32.2531C110.849 31.9468 111.101 31.6988 111.417 31.6988H111.42" fill="#FDBB30"/>
</g>
<defs>
<clipPath id="clip0_3_111">
<rect width="104" height="25" fill="white" transform="translate(8 13)"/>
</clipPath>
</defs>
</svg>
