<?xml version="1.0" encoding="UTF-8"?>
<svg id="Layer_1" data-name="Layer 1" xmlns="http://www.w3.org/2000/svg" viewBox="0 0 1920 625.7145207746">
  <defs>
    <style>
      .cls-1 {
        fill: #131919;
      }

      .cls-1, .cls-2 {
        stroke-width: 0px;
      }

      .cls-2 {
        fill: #00ae42;
      }
    </style>
  </defs>
  <g>
    <path class="cls-1" d="m529.1191021367,213.0301241738h77.6419846494v245.3273223003c0,85.5223478303-60.2015792822,144.6015247873-141.2343178103,144.6015247873-81.0170405935,0-138.9738152244-59.6443026033-138.9738152244-138.4165385452,0-84.399945505,56.2613976918-138.4165385452,125.473591448-138.4165385452,34.8886597014,0,60.2015792821,12.3778214505,77.0925569373,29.8182268176v-142.9139968148Zm1.1145533582,251.5123085424c0-50.07641145-33.7505594411-71.4569984075-64.7068865191-71.4569984075-36.0110620271,0-62.4463839335,29.2609501385-62.4463839335,71.4569984075s26.4353219064,71.4569984072,62.4463839335,71.4569984072c37.1413133198,0,64.7068865191-29.2609501385,64.7068865191-71.4569984072Z"/>
    <path class="cls-1" d="m650.6132671574,464.5424327162c0-78.7722359423,59.0791769567-138.4165385452,142.9218457823-138.4165385452,83.8348198584,0,142.913996815,59.6443026029,142.913996815,138.4165385452s-59.0791769566,138.4165385452-142.913996815,138.4165385452c-83.8426688256,0-142.9218457823-59.6443026033-142.9218457823-138.4165385452Zm209.3084113064,0c0-42.196048269-27.5655731994-71.4569984075-66.3865655241-71.4569984075-38.8288412918,0-66.4022634585,29.2609501385-66.4022634585,71.4569984075s27.5734221667,71.4569984072,66.4022634585,71.4569984072c38.8209923247,0,66.3865655241-29.2609501385,66.3865655241-71.4569984072Z"/>
    <path class="cls-1" d="m1158.1039466424,393.0854343086h-77.6419846491v88.8974037745c0,33.201131729,11.2554191252,50.641537096,46.7013555058,50.641537096,3.3750559438,0,12.9350981299,0,23.0602659622-.5651256464v62.4620818682c-15.7450284278,4.5053072368-28.6958244922,6.7501118881-44.44085292,6.7501118881-61.8969562215,0-102.9784511319-37.1413133199-102.9784511319-108.5983117274v-99.5876972531h-48.3810345105v-60.7667049286h48.3810345105v-90.0276550677h77.6576825839v90.0276550677h77.6419846491v60.7667049286Z"/>
    <path class="cls-1" d="m1457.9972896954,489.8632012642h-198.6259667948c8.4297908929,33.7584084083,32.0708804363,50.6415370963,64.7068865191,50.6415370963,29.8103778509,0,45.5711042132-7.3152375347,56.2613976917-23.633240576h70.3424450492c-16.890977655,61.3318305752-72.5872497002,86.0874734769-124.924163736,86.0874734769-83.826970891,0-138.4086895779-59.079176957-138.4086895779-138.4165385452,0-78.7722359423,56.2613976917-138.4165385452,136.1638849268-138.4165385452s135.0336336336,59.6443026029,135.0336336336,138.4165385452c0,10.6902934786,0,14.6304750691-.5494277115,25.320768548Zm-199.1910924413-51.7717883892h128.8486473921c-5.0704328833-28.6958244922-32.0708804365-48.9461601568-64.1417608728-48.9461601568-33.7662573756,0-57.3916489845,19.6930589855-64.7068865193,48.9461601568Z"/>
    <path class="cls-1" d="m1502.4067467461,596.766136052v-151.9167623215c0-63.5844841938,36.0110620268-118.7234795596,115.9135492619-118.7234795596,14.0653494231,0,24.7556429016,1.1224023256,37.690741032,4.4974582695v69.7773194029c-7.8646652468-.5651256464-15.745028428-.5651256464-19.120084372-.5651256464-41.0814949103,0-56.8265233382,18.5706566597-56.8265233382,51.2066627424v145.7239271126h-77.6576825836Z"/>
    <path class="cls-1" d="m1689.7615964808,517.9939001101h73.1366774124c3.9401815904,18.0055310133,20.2660335991,25.320768548,38.2715646127,25.320768548,16.8752797205,0,28.6958244922-7.3152375347,28.6958244922-19.6930589856,0-38.2637156452-133.3539546291-12.9429470972-133.3539546291-117.0359515877,0-46.1362298592,38.8209923249-79.9024872348,97.9080182485-80.4597639138,59.6364536359-.5651256466,99.5876972533,30.9484781107,103.5278788437,82.1472918861h-72.0221240537c-2.8099302974-12.9429470974-14.065349423-22.5029892831-31.50575479-22.5029892831-16.8909776552,0-27.0161454873,9.5600421857-27.0161454873,20.8154613109,0,36.0110620272,135.5987592803,15.7607263624,135.5987592803,117.0359515877,0,48.9540091244-48.3810345108,79.3373615889-101.8325019047,79.3373615889-63.0272075146,0-106.9186327226-36.0110620272-111.4082420251-84.9650711513Z"/>
  </g>
  <path class="cls-2" d="m177.704520859,22.7555495132C88.9525995732,22.7555495132,16.9976595895,94.7104894964,16.9976595895,183.4624107818c0,88.7594165919,71.9549399837,160.7068612691,160.7068612695,160.7068612691,88.7594165915,0,160.7068612686-71.9474446772,160.7068612686-160.7068612691,0-88.7519212854-71.947444677-160.7068612686-160.7068612686-160.7068612686Zm95.1948865359,197.8685896475c0,30.3409996929-24.6865406589,55.0275403522-55.0275403518,55.0275403522s-55.0275403523-24.6865406593-55.0275403523-55.0275403522v-8.8264726378h110.0550807041v8.8264726378Z"/>
</svg>