<?xml version="1.0" standalone="no"?>
<!DOCTYPE svg PUBLIC "-//W3C//DTD SVG 20010904//EN"
 "http://www.w3.org/TR/2001/REC-SVG-20010904/DTD/svg10.dtd">
<svg version="1.0" xmlns="http://www.w3.org/2000/svg"
 width="300.000000pt" height="72.000000pt" viewBox="0 0 300.000000 72.000000"
 preserveAspectRatio="xMidYMid meet">

<g transform="translate(0.000000,72.000000) scale(0.100000,-0.100000)"
fill="#000000" stroke="none">
<path d="M2266 623 c-26 -25 -72 -103 -62 -103 2 0 15 19 29 43 14 23 34 51
46 61 18 16 23 17 37 5 15 -12 17 -12 12 1 -8 25 -33 22 -62 -7z"/>
<path d="M320 626 c-95 -27 -164 -75 -213 -149 -44 -67 -69 -144 -70 -215 -1
-124 79 -192 225 -192 l58 0 31 62 31 61 22 -44 c57 -115 229 -119 350 -8 l56
51 0 -55 c0 -66 2 -67 126 -74 77 -5 97 -2 137 15 50 22 81 62 92 119 8 42
-12 77 -57 101 -17 10 -40 25 -52 34 -20 16 -20 18 -3 35 12 13 32 17 71 17
l54 -1 20 53 c11 29 17 56 14 59 -9 9 -129 5 -182 -6 -126 -27 -183 -165 -89
-217 55 -30 71 -46 64 -65 -4 -9 -18 -20 -30 -23 -25 -6 -130 20 -139 35 -3 5
1 28 9 51 47 133 -18 230 -156 230 -83 0 -145 -21 -199 -67 -47 -40 -100 -140
-100 -187 l0 -28 -65 4 c-83 5 -120 36 -119 97 3 108 122 198 225 171 22 -6
42 -10 44 -8 1 2 5 38 9 81 l7 77 -63 -1 c-35 0 -83 -6 -108 -13z m345 -268
c54 -25 36 -113 -29 -145 -32 -15 -37 -15 -60 1 -46 30 -27 108 33 141 32 17
25 17 56 3z"/>
<path d="M1388 562 c-45 -20 -78 -41 -78 -50 0 -7 -9 -16 -21 -19 -16 -5 -89
-101 -89 -118 0 -3 14 -5 30 -5 17 0 30 -3 30 -6 0 -4 -12 -49 -26 -102 -42
-155 -28 -192 75 -192 l66 1 35 57 35 57 6 -39 c10 -59 46 -86 117 -86 47 0
60 4 85 28 28 25 29 26 23 5 -7 -22 -5 -23 62 -23 l70 0 6 31 c5 25 9 29 26
24 28 -9 88 12 132 46 20 16 41 29 46 29 4 0 18 -13 29 -28 11 -15 46 -45 77
-67 45 -31 65 -38 101 -38 25 0 50 4 55 9 6 6 -5 8 -30 6 -49 -5 -105 26 -172
95 l-47 48 35 45 c37 47 58 80 50 80 -2 0 -14 -15 -25 -32 -12 -18 -30 -44
-41 -57 l-20 -24 -49 46 c-63 59 -108 69 -166 38 l-40 -22 33 30 c18 18 43 31
57 31 22 0 25 5 25 33 0 47 -32 94 -71 102 -17 4 -73 4 -124 0 l-92 -7 -25
-52 -26 -52 57 10 c31 5 69 6 83 3 31 -8 44 -38 29 -65 -10 -19 -13 -19 -53
-4 -29 10 -56 13 -81 8 -45 -8 -105 -58 -124 -103 -11 -28 -18 -33 -48 -33
-47 0 -51 15 -26 99 18 59 24 69 48 75 16 3 52 28 82 56 l55 50 -62 0 c-69 0
-71 2 -51 73 6 22 9 40 7 41 -2 2 -38 -13 -80 -32z m561 -288 c28 -25 51 -52
51 -59 0 -22 -90 -75 -127 -75 -52 0 -102 33 -103 68 0 7 13 -2 29 -20 l29
-32 21 70 c12 39 21 76 21 83 0 23 29 10 79 -35z m-268 -24 c40 -22 13 -90
-36 -90 -48 0 -53 62 -7 89 21 13 20 13 43 1z"/>
<path d="M2268 548 c-31 -34 -52 -49 -62 -45 -9 4 -16 2 -16 -3 0 -16 -46 -12
-60 5 -15 18 -30 20 -30 4 0 -6 18 -18 40 -26 l39 -16 -15 -29 c-9 -17 -11
-28 -6 -24 5 3 15 18 21 33 7 16 33 42 57 58 25 17 54 45 66 63 27 43 22 40
-34 -20z"/>
<path d="M2326 424 c-23 -23 -20 -30 4 -9 11 10 20 20 20 22 0 7 -9 2 -24 -13z"/>
<path d="M2130 380 c-6 -11 -8 -20 -6 -20 3 0 10 9 16 20 6 11 8 20 6 20 -3 0
-10 -9 -16 -20z"/>
<path d="M2763 344 c-12 -9 -44 -41 -70 -72 -26 -32 -40 -51 -30 -43 15 12 17
10 17 -17 0 -34 22 -62 49 -62 20 0 99 50 127 81 11 12 -3 6 -35 -15 -58 -40
-82 -44 -105 -20 -27 27 -15 64 21 64 45 0 108 48 89 67 -2 3 -7 -4 -10 -15
-7 -21 -45 -42 -76 -42 -29 0 -25 15 17 55 39 38 41 43 6 19z"/>
<path d="M2251 327 c-37 -45 -54 -143 -26 -153 20 -8 69 13 92 39 17 20 17 20
-11 -1 -31 -23 -61 -28 -71 -12 -5 8 14 56 53 133 7 13 -25 8 -37 -6z"/>
<path d="M2406 311 c-23 -24 -29 -42 -33 -88 l-5 -58 59 56 c50 48 109 89 127
89 3 0 3 -29 -1 -65 -6 -64 -5 -65 18 -64 13 0 18 3 12 6 -16 6 -17 40 -2 82
9 27 9 36 -4 48 -18 18 -35 11 -114 -48 -29 -22 -55 -39 -58 -39 -11 0 -4 31
16 65 27 46 20 53 -15 16z"/>
<path d="M2899 293 c-13 -16 -12 -17 4 -4 16 13 21 21 13 21 -2 0 -10 -8 -17
-17z"/>
<path d="M2309 103 c-13 -16 -12 -17 4 -4 16 13 21 21 13 21 -2 0 -10 -8 -17
-17z"/>
</g>
</svg>
