<?xml version="1.0" encoding="UTF-8"?>
<svg id="Capa_1" data-name="Capa 1" xmlns="http://www.w3.org/2000/svg" viewBox="0 0 721.53 415.41">
  <defs>
    <style>
      .cls-1 {
        letter-spacing: -.02em;
      }

      .cls-2 {
        letter-spacing: 0em;
      }

      .cls-3 {
        letter-spacing: -.03em;
      }

      .cls-4 {
        font-size: 110.45px;
        letter-spacing: 1.23em;
      }

      .cls-5 {
        letter-spacing: -.06em;
      }

      .cls-6 {
        fill: #0e3a59;
        fill-rule: evenodd;
      }

      .cls-7, .cls-8, .cls-9, .cls-10 {
        fill: #fff;
      }

      .cls-11 {
        letter-spacing: -.02em;
      }

      .cls-8 {
        font-size: 92.04px;
      }

      .cls-12 {
        letter-spacing: -.01em;
      }

      .cls-13 {
        letter-spacing: -.01em;
      }

      .cls-14 {
        letter-spacing: -.04em;
      }

      .cls-9 {
        font-family: AgendaOne-Bold, 'Agenda One';
        font-size: 32.21px;
        font-weight: 700;
      }

      .cls-15 {
        font-family: SegoeUIVariable-SemiboldSmall, 'Segoe UI Variable';
        font-variation-settings: 'wght' 600, 'opsz' 8;
        font-weight: 600;
      }

      .cls-10 {
        font-family: AgendaOne-Regular, 'Agenda One';
        font-size: 23.01px;
      }

      .cls-16 {
        stroke: #fff;
        stroke-linecap: round;
        stroke-linejoin: round;
      }

      .cls-16, .cls-17 {
        fill: none;
        stroke-width: 5px;
      }

      .cls-17 {
        stroke: #0e3a59;
        stroke-miterlimit: 10;
      }

      .cls-18 {
        letter-spacing: -.02em;
      }

      .cls-19 {
        letter-spacing: 0em;
      }

      .cls-20 {
        letter-spacing: 0em;
      }

      .cls-21 {
        letter-spacing: -.02em;
      }

      .cls-22 {
        letter-spacing: -.03em;
      }

      .cls-23 {
        letter-spacing: -.02em;
      }
    </style>
  </defs>
  <path class="cls-6" d="M323.17,2.5S65.37,322.72,4.33,398.55c-2.37,2.94-2.84,6.98-1.21,10.39,1.63,3.41,5.07,5.57,8.85,5.57h536.94c2.98,0,5.79-1.35,7.65-3.67,19.7-24.57,132.27-165.01,157.26-196.2,2.87-3.59,2.87-8.69,0-12.27-25-31.19-137.57-171.62-157.26-196.2-1.86-2.32-4.68-3.67-7.65-3.67h-225.74Z"/>
  <path class="cls-6" d="M157.32,209.07S43.18,66.9,4.28,18.45c-2.36-2.94-2.83-6.98-1.2-10.38,1.63-3.4,5.07-5.57,8.85-5.57h311.24l-165.85,206.58h0Z"/>
  <text class="cls-15" transform="translate(-13.27 131.36)"><tspan class="cls-4" x="0" y="0">	</tspan><tspan class="cls-8" x="165.68" y="0">03</tspan></text>
  <text class="cls-9" transform="translate(195.97 233.48) scale(1.34 1)"><tspan class="cls-14" x="0" y="0">V</tspan><tspan x="18.1" y="0">iaje segu</tspan><tspan class="cls-13" x="132.75" y="0">r</tspan><tspan class="cls-18" x="144.06" y="0">o</tspan><tspan class="cls-2" x="161.07" y="0">:</tspan></text>
  <text class="cls-10" transform="translate(198.89 288.11) scale(1.34 1)"><tspan class="cls-5" x="0" y="0">T</tspan><tspan x="10.49" y="0">u paqu</tspan><tspan class="cls-19" x="73.59" y="0">e</tspan><tspan class="cls-23" x="84.68" y="0">t</tspan><tspan x="92.36" y="0">e </tspan><tspan class="cls-22" x="109.02" y="0">v</tspan><tspan x="118.87" y="0">iaja en nuest</tspan><tspan class="cls-3" x="233.03" y="0">r</tspan><tspan x="239.91" y="0">as </tspan><tspan x="0" y="27.61">unidades </tspan><tspan class="cls-21" x="87.92" y="27.61">c</tspan><tspan x="97.79" y="27.61">on moni</tspan><tspan class="cls-11" x="174.37" y="27.61">t</tspan><tspan x="182.06" y="27.61">o</tspan><tspan class="cls-12" x="194.71" y="27.61">r</tspan><tspan class="cls-20" x="201.89" y="27.61">eo </tspan><tspan class="cls-21" x="0" y="55.23">c</tspan><tspan x="9.87" y="55.23">ons</tspan><tspan class="cls-1" x="42.57" y="55.23">t</tspan><tspan x="50.28" y="55.23">an</tspan><tspan class="cls-23" x="71.7" y="55.23">t</tspan><tspan x="79.39" y="55.23">e.</tspan></text>
  <g>
    <g>
      <path class="cls-7" d="M484.76,68.22s-8.23,10.29-20.58,13.72c0,20.58,20.58,34.3,20.58,34.3,0,0,20.58-13.72,20.58-34.3-12.35-3.43-20.58-13.72-20.58-13.72"/>
      <polyline class="cls-17" points="474.47 92.23 481.33 99.09 495.05 85.37"/>
    </g>
    <path class="cls-16" d="M505.34,144.02c4.35,1.82,6.86,4.22,6.86,6.86,0,5.68-12.29,10.29-27.44,10.29s-27.44-4.61-27.44-10.29c0-2.61,2.59-5.05,6.86-6.86"/>
    <path class="cls-16" d="M525.92,89.14c0,24.01-41.16,61.74-41.16,61.74,0,0-41.16-37.73-41.16-61.74,0-22.73,18.43-41.16,41.16-41.16s41.16,18.43,41.16,41.16Z"/>
  </g>
</svg>