<?xml version="1.0" encoding="UTF-8"?>
<svg id="Capa_1" data-name="Capa 1" xmlns="http://www.w3.org/2000/svg" viewBox="0 0 722.04 417.68">
  <defs>
    <style>
      .cls-1 {
        font-size: 110.45px;
        letter-spacing: 1.23em;
      }

      .cls-2, .cls-3 {
        fill: #0e3a59;
      }

      .cls-2, .cls-3, .cls-4 {
        fill-rule: evenodd;
      }

      .cls-5 {
        letter-spacing: -.02em;
      }

      .cls-6 {
        letter-spacing: -.02em;
      }

      .cls-7 {
        letter-spacing: -.02em;
      }

      .cls-8 {
        letter-spacing: 0em;
      }

      .cls-9 {
        letter-spacing: 0em;
      }

      .cls-10 {
        letter-spacing: 0em;
      }

      .cls-11 {
        font-size: 92.04px;
      }

      .cls-11, .cls-12, .cls-13 {
        fill: #fff;
      }

      .cls-14 {
        letter-spacing: -.02em;
      }

      .cls-3, .cls-4 {
        stroke: #0e3a59;
        stroke-miterlimit: 10;
      }

      .cls-15 {
        letter-spacing: -.01em;
      }

      .cls-12 {
        font-family: AgendaOne-Bold, 'Agenda One';
        font-size: 32.21px;
        font-weight: 700;
      }

      .cls-16 {
        font-family: SegoeUIVariable-SemiboldSmall, 'Segoe UI Variable';
        font-variation-settings: 'wght' 600, 'opsz' 8;
        font-weight: 600;
      }

      .cls-17 {
        letter-spacing: -.01em;
      }

      .cls-18 {
        letter-spacing: -.02em;
      }

      .cls-13 {
        font-family: AgendaOne-Regular, 'Agenda One';
        font-size: 23.01px;
      }

      .cls-19 {
        letter-spacing: -.01em;
      }

      .cls-4 {
        fill: none;
      }

      .cls-20 {
        letter-spacing: -.03em;
      }
    </style>
  </defs>
  <g>
    <path class="cls-3" d="M323.38,2.66S65.58,322.88,4.53,398.71c-2.37,2.94-2.84,6.98-1.21,10.39,1.63,3.41,5.07,5.57,8.85,5.57h536.94c2.98,0,5.79-1.35,7.65-3.67,19.7-24.57,132.27-165.01,157.26-196.2,2.87-3.59,2.87-8.69,0-12.27-25-31.19-137.57-171.62-157.26-196.2-1.86-2.32-4.68-3.67-7.65-3.67h-225.74Z"/>
    <g>
      <path class="cls-2" d="M157.53,209.24S43.39,67.07,4.49,18.61c-2.36-2.94-2.83-6.98-1.2-10.38,1.63-3.4,5.07-5.57,8.85-5.57h311.24l-165.85,206.58h0Z"/>
      <path class="cls-4" d="M157.53,209.24S43.39,67.07,4.49,18.61c-2.36-2.94-2.83-6.98-1.2-10.38,1.63-3.4,5.07-5.57,8.85-5.57h311.24l-165.85,206.58h0Z"/>
    </g>
  </g>
  <text class="cls-16" transform="translate(-43.74 105.95)"><tspan class="cls-1" x="0" y="0">	</tspan><tspan class="cls-11" x="165.68" y="0">01</tspan></text>
  <text class="cls-12" transform="translate(209.98 233.64) scale(1.34 1)"><tspan class="cls-9" x="0" y="0">E</tspan><tspan x="15.01" y="0">nt</tspan><tspan class="cls-17" x="44.04" y="0">r</tspan><tspan x="55.34" y="0">e</tspan><tspan class="cls-5" x="71.26" y="0">g</tspan><tspan x="85.98" y="0">a tu paqu</tspan><tspan class="cls-9" x="211.16" y="0">e</tspan><tspan class="cls-6" x="226.92" y="0">t</tspan><tspan x="238.61" y="0">e:</tspan></text>
  <text class="cls-13" transform="translate(212.91 288.28) scale(1.34 1)"><tspan x="0" y="0">Ll</tspan><tspan class="cls-8" x="15.3" y="0">e</tspan><tspan class="cls-18" x="26.28" y="0">v</tspan><tspan x="36.4" y="0">a tu e</tspan><tspan class="cls-10" x="88.08" y="0">n</tspan><tspan class="cls-20" x="99.4" y="0">v</tspan><tspan x="109.25" y="0">ío a una </tspan><tspan class="cls-7" x="186.01" y="0">t</tspan><tspan x="193.7" y="0">erminal </tspan><tspan x="0" y="27.61">de au</tspan><tspan class="cls-7" x="50.53" y="27.61">t</tspan><tspan x="58.22" y="27.61">obuses o pun</tspan><tspan class="cls-7" x="182.06" y="27.61">t</tspan><tspan x="189.74" y="27.61">o de </tspan><tspan x="0" y="55.23">salida au</tspan><tspan class="cls-7" x="77.54" y="55.23">t</tspan><tspan x="85.23" y="55.23">o</tspan><tspan class="cls-15" x="97.88" y="55.23">r</tspan><tspan x="104.99" y="55.23">i</tspan><tspan class="cls-14" x="109.9" y="55.23">z</tspan><tspan x="119.35" y="55.23">ad</tspan><tspan class="cls-19" x="141.67" y="55.23">o</tspan><tspan x="154.01" y="55.23">.</tspan></text>
</svg>