<?xml version="1.0" encoding="UTF-8"?>
<svg id="Capa_1" data-name="Capa 1" xmlns="http://www.w3.org/2000/svg" viewBox="0 0 721.02 418.23">
  <defs>
    <style>
      .cls-1 {
        letter-spacing: -.02em;
      }

      .cls-2 {
        letter-spacing: -.02em;
      }

      .cls-3 {
        letter-spacing: -.02em;
      }

      .cls-4 {
        letter-spacing: 0em;
      }

      .cls-5 {
        letter-spacing: 0em;
      }

      .cls-6 {
        font-size: 110.45px;
        letter-spacing: 1.23em;
      }

      .cls-7 {
        letter-spacing: -.02em;
      }

      .cls-8 {
        letter-spacing: -.02em;
      }

      .cls-9, .cls-10, .cls-11, .cls-12 {
        fill: #fff;
      }

      .cls-13 {
        letter-spacing: 0em;
      }

      .cls-14 {
        letter-spacing: -.02em;
      }

      .cls-15 {
        letter-spacing: 0em;
      }

      .cls-16 {
        letter-spacing: 0em;
      }

      .cls-10 {
        font-size: 92.04px;
      }

      .cls-17 {
        letter-spacing: -.02em;
      }

      .cls-18 {
        letter-spacing: -.01em;
      }

      .cls-11 {
        font-family: AgendaOne-Bold, 'Agenda One';
        font-size: 32.21px;
        font-weight: 700;
      }

      .cls-19 {
        font-family: SegoeUIVariable-SemiboldSmall, 'Segoe UI Variable';
        font-variation-settings: 'wght' 600, 'opsz' 8;
        font-weight: 600;
      }

      .cls-12 {
        font-family: AgendaOne-Regular, 'Agenda One';
        font-size: 23.01px;
      }

      .cls-20 {
        letter-spacing: -.01em;
      }

      .cls-21 {
        letter-spacing: -.02em;
      }

      .cls-22 {
        letter-spacing: -.01em;
      }

      .cls-23 {
        fill: #7ea8af;
        fill-rule: evenodd;
      }

      .cls-24 {
        letter-spacing: 0em;
      }

      .cls-25 {
        letter-spacing: -.02em;
      }
    </style>
  </defs>
  <path class="cls-23" d="M324.59,1.92S66.8,322.14,5.75,397.97c-2.37,2.94-2.84,6.98-1.21,10.39,1.63,3.41,5.07,5.57,8.85,5.57h536.94c2.98,0,5.79-1.35,7.65-3.67,19.7-24.57,132.27-165.01,157.26-196.2,2.87-3.59,2.87-8.69,0-12.27-25-31.19-137.57-171.62-157.26-196.2-1.86-2.32-4.68-3.67-7.65-3.67h-225.74Z"/>
  <path class="cls-23" d="M158.74,208.5S44.6,66.33,5.7,17.87c-2.36-2.94-2.83-6.98-1.2-10.38,1.63-3.4,5.07-5.57,8.85-5.57h311.24l-165.85,206.58h0Z"/>
  <text class="cls-19" transform="translate(-21.06 130.78)"><tspan class="cls-6" x="0" y="0">	</tspan><tspan class="cls-10" x="165.68" y="0">02</tspan></text>
  <text class="cls-11" transform="translate(184.68 233.29) scale(1.34 1)"><tspan x="0" y="0">P</tspan><tspan class="cls-3" x="16.78" y="0">r</tspan><tspan x="28.09" y="0">o</tspan><tspan class="cls-8" x="45.74" y="0">c</tspan><tspan class="cls-4" x="59.34" y="0">esamos tu e</tspan><tspan class="cls-18" x="218.06" y="0">n</tspan><tspan class="cls-8" x="234.36" y="0">v</tspan><tspan x="249.34" y="0">í</tspan><tspan class="cls-1" x="257.26" y="0">o</tspan><tspan x="274.27" y="0">:</tspan></text>
  <text class="cls-12" transform="translate(186.86 282.93) scale(1.34 1)"><tspan class="cls-21" x="0" y="0">L</tspan><tspan x="9.83" y="0">o </tspan><tspan class="cls-20" x="27.93" y="0">r</tspan><tspan class="cls-13" x="35.11" y="0">egist</tspan><tspan class="cls-2" x="78.46" y="0">r</tspan><tspan class="cls-5" x="85.34" y="0">amos y a</tspan><tspan class="cls-15" x="165.72" y="0">s</tspan><tspan x="173.98" y="0">ignamos a </tspan><tspan x="0" y="27.61">la </tspan><tspan class="cls-16" x="20.41" y="27.61">s</tspan><tspan class="cls-13" x="28.67" y="27.61">iguien</tspan><tspan class="cls-7" x="83.39" y="27.61">t</tspan><tspan class="cls-24" x="91.07" y="27.61">e </tspan><tspan class="cls-25" x="107.73" y="27.61">c</tspan><tspan x="117.61" y="27.61">or</tspan><tspan class="cls-17" x="137.72" y="27.61">r</tspan><tspan x="144.83" y="27.61">ida disponible</tspan><tspan x="0" y="55.23">al des</tspan><tspan class="cls-14" x="52.55" y="55.23">t</tspan><tspan class="cls-13" x="60.24" y="55.23">in</tspan><tspan class="cls-22" x="76.69" y="55.23">o</tspan><tspan x="89.03" y="55.23">.</tspan></text>
  <g>
    <path class="cls-9" d="M579.3,88.01h-2.43s-.14-1.89-.14-1.89c-3.71-7.91-7.42-15.82-11.13-23.74-1.64-3.5-3.23-6.91-7.53-6.91h-207c-2.08,0-3.81.82-5.14,2.14-1.39,1.39-2.3,3.33-2.66,5.44l-4.5,26.52v30.37c0,2.07.81,3.77,2.12,5.08,1.39,1.39,3.33,2.3,5.43,2.71l15.94,3.1h9.57v-5.4c0-3.08,1.26-5.11,3.29-7.14,2.03-2.03,4.83-3.29,7.92-3.29s5.88,1.26,7.91,3.29c2.03,2.03,3.29,4.83,3.29,7.91v4.9h8.93v-4.87c0-3.08,1.26-5.88,3.29-7.91,2.03-2.03,4.83-3.29,7.91-3.29s5.88,1.26,7.92,3.29c2.03,2.03,3.29,4.83,3.29,7.91v4.59c30.08,0,60.15.02,90.23.03v-4.61s0-.77,0-.77h0c0-3.08,1.26-5.11,3.29-7.14,2.04-2.04,4.84-3.3,7.91-3.3v-.38.39c3.08,0,5.88,1.26,7.92,3.29,2.03,2.03,3.29,4.83,3.29,7.91v4.59l36.57-.13c2.01,0,3.47-.12,4.58-.83,1.26-.81,1.83-2.12,1.83-4.43v-.85c0-2.67-.62-3.32-1.3-4.03-.3-.31-.62-.66-.75-2.36l-2.09-27.37h2.2c5.57.04,5.55,2.01,5.5,10.97,0,1.29-.02,2.7-.01,4.26h2.83c0-1.55,0-2.97.01-4.25.07-11.27.08-13.76-8.32-13.8ZM557.11,64.04l11.87,20.36-32.44-23.6,15.14.1c2.24.01,4.3,1.21,5.43,3.14ZM346.54,105.72h-3.6v-2.84h3.6v2.84ZM346.54,101.35h-3.6v-2.84h3.6v2.84ZM346.54,96.98h-3.6v-2.84h3.6v2.84ZM366.25,123.51h-16.86v-2.84h16.86v2.84ZM366.25,119.14h-16.86v-2.84h16.86v2.84ZM366.25,114.77h-16.86v-2.84h16.86v2.84ZM569.87,90.63l1.41,19.45c.09,1.24-.67,2.39-1.85,2.79l-3.34,1.15c-.87.3-1.81.33-2.7.1l-29.9-8.71c-6.08-1.61-12.55-.61-17.86,2.75l-7.44,4.71c-1.94,1.23-4.27,1.72-6.54,1.38l-59.68-4.98c-3.58-.3-7.13-.93-10.6-1.88l-28.76-7.87c-.85-.23-1.29-1.18-.91-1.98l2.42-2.46c1.38-1.4,3.04-2.48,4.88-3.17l1.51-.57c1.26-.48,2.6-.72,3.95-.72h125.66c1.05,0,1.48-1.35.62-1.96l-7.81-5.48c-2.42-1.7-5.31-2.61-8.27-2.61h-163.12c-3.1,0-5.87-1.96-6.89-4.89l-4.44-12.72c-.35-1,.39-2.05,1.45-2.05h171.35c3.05,0,6.01.97,8.47,2.77l38.38,26.94Z"/>
    <path class="cls-9" d="M382.93,117.94c-2.46,0-4.7,1-6.31,2.61-1.61,1.61-2.61,3.85-2.61,6.31s1,4.7,2.61,6.31c1.61,1.61,3.85,2.61,6.31,2.61s4.7-1,6.31-2.61c1.61-1.61,2.61-3.85,2.61-6.31s-1-4.7-2.61-6.31c-1.61-1.61-3.85-2.61-6.31-2.61Z"/>
    <path class="cls-9" d="M527.05,117.94c-2.46,0-4.7,1-6.31,2.61-1.61,1.61-2.61,3.85-2.61,6.31s1,4.7,2.61,6.31c1.61,1.61,3.85,2.61,6.31,2.61s4.7-1,6.31-2.61c1.61-1.61,2.61-3.85,2.61-6.31s-1-4.7-2.61-6.31-3.85-2.61-6.31-2.61Z"/>
    <path class="cls-9" d="M414.34,117.94c-2.46,0-4.7,1-6.31,2.61-1.61,1.61-2.61,3.85-2.61,6.31s1,4.7,2.61,6.31c1.61,1.61,3.85,2.61,6.31,2.61s4.7-1,6.31-2.61c1.61-1.61,2.61-3.85,2.61-6.31s-1-4.7-2.61-6.31c-1.61-1.61-3.85-2.61-6.31-2.61Z"/>
  </g>
</svg>