<?xml version="1.0" encoding="UTF-8"?>
<svg id="Capa_1" data-name="Capa 1" xmlns="http://www.w3.org/2000/svg" viewBox="0 0 723.57 420.89">
  <defs>
    <style>
      .cls-1 {
        letter-spacing: -.02em;
      }

      .cls-2 {
        letter-spacing: -.02em;
      }

      .cls-3 {
        letter-spacing: -.02em;
      }

      .cls-4 {
        letter-spacing: -.02em;
      }

      .cls-5 {
        font-size: 110.45px;
        letter-spacing: 1.23em;
      }

      .cls-6 {
        letter-spacing: .02em;
      }

      .cls-7 {
        letter-spacing: -.02em;
      }

      .cls-8 {
        letter-spacing: 0em;
      }

      .cls-9 {
        letter-spacing: -.02em;
      }

      .cls-10 {
        font-size: 92.04px;
      }

      .cls-10, .cls-11, .cls-12 {
        fill: #fff;
      }

      .cls-13 {
        letter-spacing: -.01em;
      }

      .cls-14 {
        letter-spacing: 0em;
      }

      .cls-11 {
        font-family: AgendaOne-Bold, 'Agenda One';
        font-size: 32.21px;
        font-weight: 700;
      }

      .cls-15 {
        font-family: SegoeUIVariable-SemiboldSmall, 'Segoe UI Variable';
        font-variation-settings: 'wght' 600, 'opsz' 8;
        font-weight: 600;
      }

      .cls-16 {
        letter-spacing: -.02em;
      }

      .cls-17 {
        fill: none;
        stroke: #fff;
        stroke-miterlimit: 10;
        stroke-width: 3px;
      }

      .cls-12 {
        font-family: AgendaOne-Regular, 'Agenda One';
        font-size: 23.01px;
      }

      .cls-18 {
        letter-spacing: -.02em;
      }

      .cls-19 {
        letter-spacing: 0em;
      }

      .cls-20 {
        fill: #7ea8af;
        fill-rule: evenodd;
      }

      .cls-21 {
        letter-spacing: 0em;
      }

      .cls-22 {
        letter-spacing: -.02em;
      }

      .cls-23 {
        letter-spacing: -.02em;
      }
    </style>
  </defs>
  <path class="cls-20" d="M323.74,3.43S65.94,323.65,4.9,399.48c-2.37,2.94-2.84,6.98-1.21,10.39,1.63,3.41,5.07,5.57,8.85,5.57h536.94c2.98,0,5.79-1.35,7.65-3.67,19.7-24.57,132.27-165.01,157.26-196.2,2.87-3.59,2.87-8.69,0-12.27-25-31.19-137.57-171.62-157.26-196.2-1.86-2.32-4.68-3.67-7.65-3.67h-225.74Z"/>
  <path class="cls-20" d="M157.89,210.01S43.75,67.84,4.85,19.38c-2.36-2.94-2.83-6.98-1.2-10.38,1.63-3.4,5.07-5.57,8.85-5.57h311.24l-165.85,206.58h0Z"/>
  <text class="cls-15" transform="translate(-26.51 132.29)"><tspan class="cls-5" x="0" y="0">	</tspan><tspan class="cls-10" x="165.68" y="0">04</tspan></text>
  <text class="cls-11" transform="translate(187.33 234.41) scale(1.34 1)"><tspan class="cls-3" x="0" y="0">R</tspan><tspan x="17.94" y="0">e</tspan><tspan class="cls-22" x="33.86" y="0">c</tspan><tspan class="cls-8" x="47.45" y="0">o</tspan><tspan class="cls-1" x="64.88" y="0">g</tspan><tspan x="79.67" y="0">e tu paqu</tspan><tspan class="cls-19" x="205.91" y="0">e</tspan><tspan class="cls-7" x="221.67" y="0">t</tspan><tspan x="233.36" y="0">e:</tspan></text>
  <text class="cls-12" transform="translate(185.66 289.05) scale(1.34 1)"><tspan x="0" y="0">El des</tspan><tspan class="cls-23" x="53.29" y="0">t</tspan><tspan x="60.98" y="0">ina</tspan><tspan class="cls-4" x="87.3" y="0">t</tspan><tspan x="95.01" y="0">a</tspan><tspan class="cls-18" x="104.88" y="0">r</tspan><tspan x="111.99" y="0">io puede </tspan><tspan class="cls-13" x="199.2" y="0">r</tspan><tspan x="206.38" y="0">e</tspan><tspan class="cls-16" x="217.58" y="0">c</tspan><tspan x="227.46" y="0">o</tspan><tspan class="cls-14" x="240.11" y="0">g</tspan><tspan x="250.54" y="0">erlo</tspan><tspan x="0" y="27.61">en la </tspan><tspan class="cls-9" x="48.62" y="27.61">t</tspan><tspan x="56.31" y="27.61">erminal de lle</tspan><tspan class="cls-14" x="180.12" y="27.61">g</tspan><tspan x="190.55" y="27.61">ada </tspan><tspan class="cls-13" x="0" y="55.23">r</tspan><tspan x="7.18" y="55.23">egist</tspan><tspan class="cls-2" x="50.53" y="55.23">r</tspan><tspan x="57.41" y="55.23">ad</tspan><tspan class="cls-6" x="79.73" y="55.23">a</tspan><tspan class="cls-21" x="90.01" y="55.23">.</tspan></text>
  <path class="cls-17" d="M532.63,86.7c-2.4-2.4-6.08-3.06-9.17-1.66l-1.4.64v-19.74l10.89-6.66c.43-.26.73-.71.79-1.22.07-.5-.1-1.01-.44-1.38l-11.7-12.45-.02.02c-.31-.33-.74-.55-1.21-.55h-47.46c-.23,0-.45.05-.67.14l-22.16,9.48c-.35.15-.62.41-.8.73h0s-9.6,17.02-9.6,17.02c-.3.52-.29,1.16.01,1.68.3.52.86.84,1.46.84h7.91v13.2c-16.43-2.98-31.44,4.29-37.37,7.72v-1.25c0-.93-.76-1.69-1.69-1.69h-11.84c-.93,0-1.69.76-1.69,1.69v41.6c0,.93.76,1.69,1.69,1.69h11.84c.93,0,1.69-.76,1.69-1.69v-2.6c4.45.03,26.8.21,46.13,1.33.91.05,1.83.08,2.74.08,8,0,15.9-2.04,23.01-5.97l47.24-28.07c2.27-1.25,3.78-3.44,4.14-6.01s-.48-5.09-2.31-6.92ZM518.68,87.22l-18.78,8.57v-36.66l11.21,11.93c.33.35.78.53,1.23.53.3,0,.61-.08.88-.25l5.46-3.34v19.22ZM512.63,67.74l-11.53-12.27,18.85-8.07,9.47,10.08-16.79,10.26ZM497.86,53.17h-23.27v-6.1h37.53l-14.26,6.1ZM471.22,47.94v5.23h-12.23l12.23-5.23ZM451.73,56.55h43.58l-7.7,13.65h-43.58l7.7-13.65ZM452.43,73.58h36.17c.61,0,1.17-.33,1.47-.86l6.44-11.42v36.03l-5.19,2.37c-.18-4.86-4.16-8.77-9.06-8.77h-15.3c-3.44,0-6.82-.64-10.02-1.91-1.51-.6-3.02-1.09-4.52-1.49v-13.95ZM408.3,133.16h-8.46v-38.22h8.46v38.22ZM531.6,93.15c-.21,1.51-1.1,2.79-2.48,3.55l-47.24,28.07c-7.32,4.04-15.57,5.93-23.88,5.44-19.43-1.13-41.88-1.31-46.32-1.34v-30.42c4.03-2.52,24.27-14.12,44.02-6.3,3.61,1.43,7.4,2.15,11.27,2.15h15.3c3.15,0,5.71,2.56,5.71,5.71s-2.56,5.71-5.71,5.71h-37.36c-.93,0-1.69.76-1.69,1.69s.76,1.69,1.69,1.69h37.36c3.67,0,6.83-2.2,8.26-5.34l34.33-15.66c1.81-.83,3.97-.44,5.38.97,1.08,1.08,1.57,2.56,1.36,4.06Z"/>
</svg>